<mxfile host="app.diagrams.net" modified="2021-02-21T02:05:31.826Z" agent="5.0 (X11)" etag="EbD2slUOtHXb4T66VtQT" version="14.4.2" type="github" pages="3">
  <diagram id="HA04Cpn9nzUUd_77Lgpg" name="Page-1">
    <mxGraphModel dx="2355" dy="2580" grid="0" gridSize="10" guides="1" tooltips="1" connect="1" arrows="1" fold="1" page="0" pageScale="1" pageWidth="850" pageHeight="1100" math="0" shadow="0">
      <root>
        <mxCell id="0" />
        <mxCell id="1" parent="0" />
        <mxCell id="FE4h6nMI_-IRny2-kvsw-892" value="" style="ellipse;whiteSpace=wrap;html=1;gradientDirection=west;fillColor=#fff2cc;strokeColor=#d6b656;" parent="1" vertex="1">
          <mxGeometry x="680" y="-1100" width="1000" height="950" as="geometry" />
        </mxCell>
        <mxCell id="FE4h6nMI_-IRny2-kvsw-890" value="&lt;div&gt;&lt;font style=&quot;font-size: 27px&quot;&gt;&lt;br&gt;&lt;/font&gt;&lt;/div&gt;&lt;div&gt;&lt;font style=&quot;font-size: 27px&quot;&gt;&lt;br&gt;&lt;/font&gt;&lt;/div&gt;&lt;div&gt;&lt;font style=&quot;font-size: 27px&quot;&gt;&lt;br&gt;&lt;/font&gt;&lt;/div&gt;&lt;div&gt;&lt;font style=&quot;font-size: 27px&quot;&gt;Burn Area&lt;/font&gt;&lt;/div&gt;" style="ellipse;whiteSpace=wrap;html=1;fillColor=#fad9d5;strokeColor=#ae4132;" parent="1" vertex="1">
          <mxGeometry x="750" y="-1020" width="900" height="830" as="geometry" />
        </mxCell>
        <mxCell id="FE4h6nMI_-IRny2-kvsw-760" value="" style="group;rotation=0;" parent="1" vertex="1" connectable="0">
          <mxGeometry x="886.730698141557" y="-824.2057449719944" width="545" height="200" as="geometry" />
        </mxCell>
        <mxCell id="FE4h6nMI_-IRny2-kvsw-761" value="" style="shape=crossbar;whiteSpace=wrap;html=1;rounded=1;strokeWidth=3;rotation=0;" parent="FE4h6nMI_-IRny2-kvsw-760" vertex="1">
          <mxGeometry x="31" y="182" width="444.3312101910828" height="12.121212121212121" as="geometry" />
        </mxCell>
        <mxCell id="FE4h6nMI_-IRny2-kvsw-762" value="" style="verticalLabelPosition=bottom;verticalAlign=top;html=1;shape=mxgraph.basic.4_point_star_2;dx=0.8;fillColor=#f8cecc;strokeColor=#b85450;rotation=0;" parent="FE4h6nMI_-IRny2-kvsw-760" vertex="1">
          <mxGeometry x="46" y="179" width="20.828025477707005" height="18.181818181818183" as="geometry" />
        </mxCell>
        <mxCell id="FE4h6nMI_-IRny2-kvsw-763" value="" style="verticalLabelPosition=bottom;verticalAlign=top;html=1;shape=mxgraph.basic.4_point_star_2;dx=0.8;fillColor=#f8cecc;strokeColor=#b85450;rotation=0;" parent="FE4h6nMI_-IRny2-kvsw-760" vertex="1">
          <mxGeometry x="86" y="179" width="20.828025477707005" height="18.181818181818183" as="geometry" />
        </mxCell>
        <mxCell id="FE4h6nMI_-IRny2-kvsw-764" value="" style="verticalLabelPosition=bottom;verticalAlign=top;html=1;shape=mxgraph.basic.4_point_star_2;dx=0.8;fillColor=#f8cecc;strokeColor=#b85450;rotation=0;" parent="FE4h6nMI_-IRny2-kvsw-760" vertex="1">
          <mxGeometry x="128" y="179" width="20.828025477707005" height="18.181818181818183" as="geometry" />
        </mxCell>
        <mxCell id="FE4h6nMI_-IRny2-kvsw-765" value="" style="verticalLabelPosition=bottom;verticalAlign=top;html=1;shape=mxgraph.basic.4_point_star_2;dx=0.8;fillColor=#f8cecc;strokeColor=#b85450;rotation=0;" parent="FE4h6nMI_-IRny2-kvsw-760" vertex="1">
          <mxGeometry x="170" y="178" width="20.828025477707005" height="18.181818181818183" as="geometry" />
        </mxCell>
        <mxCell id="FE4h6nMI_-IRny2-kvsw-766" value="" style="verticalLabelPosition=bottom;verticalAlign=top;html=1;shape=mxgraph.basic.4_point_star_2;dx=0.8;fillColor=#f8cecc;strokeColor=#b85450;rotation=0;" parent="FE4h6nMI_-IRny2-kvsw-760" vertex="1">
          <mxGeometry x="212" y="179" width="20.828025477707005" height="18.181818181818183" as="geometry" />
        </mxCell>
        <mxCell id="FE4h6nMI_-IRny2-kvsw-767" value="" style="verticalLabelPosition=bottom;verticalAlign=top;html=1;shape=mxgraph.basic.4_point_star_2;dx=0.8;fillColor=#f8cecc;strokeColor=#b85450;rotation=0;" parent="FE4h6nMI_-IRny2-kvsw-760" vertex="1">
          <mxGeometry x="253" y="178" width="20.828025477707005" height="18.181818181818183" as="geometry" />
        </mxCell>
        <mxCell id="FE4h6nMI_-IRny2-kvsw-768" value="" style="verticalLabelPosition=bottom;verticalAlign=top;html=1;shape=mxgraph.basic.4_point_star_2;dx=0.8;fillColor=#f8cecc;strokeColor=#b85450;rotation=0;" parent="FE4h6nMI_-IRny2-kvsw-760" vertex="1">
          <mxGeometry x="288" y="179" width="20.828025477707005" height="18.181818181818183" as="geometry" />
        </mxCell>
        <mxCell id="FE4h6nMI_-IRny2-kvsw-769" value="" style="verticalLabelPosition=bottom;verticalAlign=top;html=1;shape=mxgraph.basic.4_point_star_2;dx=0.8;fillColor=#f8cecc;strokeColor=#b85450;rotation=0;" parent="FE4h6nMI_-IRny2-kvsw-760" vertex="1">
          <mxGeometry x="330" y="179" width="20.828025477707005" height="18.181818181818183" as="geometry" />
        </mxCell>
        <mxCell id="FE4h6nMI_-IRny2-kvsw-770" value="" style="verticalLabelPosition=bottom;verticalAlign=top;html=1;shape=mxgraph.basic.4_point_star_2;dx=0.8;fillColor=#f8cecc;strokeColor=#b85450;rotation=0;" parent="FE4h6nMI_-IRny2-kvsw-760" vertex="1">
          <mxGeometry x="371" y="178" width="20.828025477707005" height="18.181818181818183" as="geometry" />
        </mxCell>
        <mxCell id="FE4h6nMI_-IRny2-kvsw-771" value="" style="verticalLabelPosition=bottom;verticalAlign=top;html=1;shape=mxgraph.basic.4_point_star_2;dx=0.8;fillColor=#f8cecc;strokeColor=#b85450;rotation=0;" parent="FE4h6nMI_-IRny2-kvsw-760" vertex="1">
          <mxGeometry x="406" y="179" width="20.828025477707005" height="18.181818181818183" as="geometry" />
        </mxCell>
        <mxCell id="FE4h6nMI_-IRny2-kvsw-772" value="" style="verticalLabelPosition=bottom;verticalAlign=top;html=1;shape=mxgraph.basic.4_point_star_2;dx=0.8;fillColor=#f8cecc;strokeColor=#b85450;rotation=0;" parent="FE4h6nMI_-IRny2-kvsw-760" vertex="1">
          <mxGeometry x="448" y="179" width="20.828025477707005" height="18.181818181818183" as="geometry" />
        </mxCell>
        <mxCell id="FE4h6nMI_-IRny2-kvsw-773" value="" style="verticalLabelPosition=bottom;verticalAlign=top;html=1;shape=mxgraph.basic.8_point_star;fillColor=#e1d5e7;strokeColor=#9673a6;rotation=0;" parent="FE4h6nMI_-IRny2-kvsw-760" vertex="1">
          <mxGeometry x="191" y="175" width="27.770700636942674" height="24.242424242424242" as="geometry" />
        </mxCell>
        <mxCell id="FE4h6nMI_-IRny2-kvsw-774" value="" style="shape=crossbar;whiteSpace=wrap;html=1;rounded=1;strokeWidth=3;rotation=0;" parent="FE4h6nMI_-IRny2-kvsw-760" vertex="1">
          <mxGeometry x="31" y="139" width="444.3312101910828" height="12.121212121212121" as="geometry" />
        </mxCell>
        <mxCell id="FE4h6nMI_-IRny2-kvsw-775" value="" style="verticalLabelPosition=bottom;verticalAlign=top;html=1;shape=mxgraph.basic.4_point_star_2;dx=0.8;fillColor=#f8cecc;strokeColor=#b85450;rotation=0;" parent="FE4h6nMI_-IRny2-kvsw-760" vertex="1">
          <mxGeometry x="45" y="137" width="20.828025477707005" height="18.181818181818183" as="geometry" />
        </mxCell>
        <mxCell id="FE4h6nMI_-IRny2-kvsw-776" value="" style="verticalLabelPosition=bottom;verticalAlign=top;html=1;shape=mxgraph.basic.4_point_star_2;dx=0.8;fillColor=#f8cecc;strokeColor=#b85450;rotation=0;" parent="FE4h6nMI_-IRny2-kvsw-760" vertex="1">
          <mxGeometry x="86" y="136" width="20.828025477707005" height="18.181818181818183" as="geometry" />
        </mxCell>
        <mxCell id="FE4h6nMI_-IRny2-kvsw-777" value="" style="verticalLabelPosition=bottom;verticalAlign=top;html=1;shape=mxgraph.basic.4_point_star_2;dx=0.8;fillColor=#f8cecc;strokeColor=#b85450;rotation=0;" parent="FE4h6nMI_-IRny2-kvsw-760" vertex="1">
          <mxGeometry x="128" y="137" width="20.828025477707005" height="18.181818181818183" as="geometry" />
        </mxCell>
        <mxCell id="FE4h6nMI_-IRny2-kvsw-778" value="" style="verticalLabelPosition=bottom;verticalAlign=top;html=1;shape=mxgraph.basic.4_point_star_2;dx=0.8;fillColor=#f8cecc;strokeColor=#b85450;rotation=0;" parent="FE4h6nMI_-IRny2-kvsw-760" vertex="1">
          <mxGeometry x="170" y="136" width="20.828025477707005" height="18.181818181818183" as="geometry" />
        </mxCell>
        <mxCell id="FE4h6nMI_-IRny2-kvsw-779" value="" style="verticalLabelPosition=bottom;verticalAlign=top;html=1;shape=mxgraph.basic.4_point_star_2;dx=0.8;fillColor=#f8cecc;strokeColor=#b85450;rotation=0;" parent="FE4h6nMI_-IRny2-kvsw-760" vertex="1">
          <mxGeometry x="212" y="136" width="20.828025477707005" height="18.181818181818183" as="geometry" />
        </mxCell>
        <mxCell id="FE4h6nMI_-IRny2-kvsw-780" value="" style="verticalLabelPosition=bottom;verticalAlign=top;html=1;shape=mxgraph.basic.4_point_star_2;dx=0.8;fillColor=#f8cecc;strokeColor=#b85450;rotation=0;" parent="FE4h6nMI_-IRny2-kvsw-760" vertex="1">
          <mxGeometry x="253" y="136" width="20.828025477707005" height="18.181818181818183" as="geometry" />
        </mxCell>
        <mxCell id="FE4h6nMI_-IRny2-kvsw-781" value="" style="verticalLabelPosition=bottom;verticalAlign=top;html=1;shape=mxgraph.basic.4_point_star_2;dx=0.8;fillColor=#f8cecc;strokeColor=#b85450;rotation=0;" parent="FE4h6nMI_-IRny2-kvsw-760" vertex="1">
          <mxGeometry x="288" y="136" width="20.828025477707005" height="18.181818181818183" as="geometry" />
        </mxCell>
        <mxCell id="FE4h6nMI_-IRny2-kvsw-782" value="" style="verticalLabelPosition=bottom;verticalAlign=top;html=1;shape=mxgraph.basic.4_point_star_2;dx=0.8;fillColor=#f8cecc;strokeColor=#b85450;rotation=0;" parent="FE4h6nMI_-IRny2-kvsw-760" vertex="1">
          <mxGeometry x="330" y="136" width="20.828025477707005" height="18.181818181818183" as="geometry" />
        </mxCell>
        <mxCell id="FE4h6nMI_-IRny2-kvsw-783" value="" style="verticalLabelPosition=bottom;verticalAlign=top;html=1;shape=mxgraph.basic.4_point_star_2;dx=0.8;fillColor=#f8cecc;strokeColor=#b85450;rotation=0;" parent="FE4h6nMI_-IRny2-kvsw-760" vertex="1">
          <mxGeometry x="371" y="136" width="20.828025477707005" height="18.181818181818183" as="geometry" />
        </mxCell>
        <mxCell id="FE4h6nMI_-IRny2-kvsw-784" value="" style="verticalLabelPosition=bottom;verticalAlign=top;html=1;shape=mxgraph.basic.4_point_star_2;dx=0.8;fillColor=#f8cecc;strokeColor=#b85450;rotation=0;" parent="FE4h6nMI_-IRny2-kvsw-760" vertex="1">
          <mxGeometry x="406" y="136" width="20.828025477707005" height="18.181818181818183" as="geometry" />
        </mxCell>
        <mxCell id="FE4h6nMI_-IRny2-kvsw-785" value="" style="verticalLabelPosition=bottom;verticalAlign=top;html=1;shape=mxgraph.basic.4_point_star_2;dx=0.8;fillColor=#f8cecc;strokeColor=#b85450;rotation=0;" parent="FE4h6nMI_-IRny2-kvsw-760" vertex="1">
          <mxGeometry x="448" y="137" width="20.828025477707005" height="18.181818181818183" as="geometry" />
        </mxCell>
        <mxCell id="FE4h6nMI_-IRny2-kvsw-786" value="" style="shape=crossbar;whiteSpace=wrap;html=1;rounded=1;strokeWidth=3;rotation=0;" parent="FE4h6nMI_-IRny2-kvsw-760" vertex="1">
          <mxGeometry x="101" y="91" width="444.3312101910828" height="12.121212121212121" as="geometry" />
        </mxCell>
        <mxCell id="FE4h6nMI_-IRny2-kvsw-787" value="" style="verticalLabelPosition=bottom;verticalAlign=top;html=1;shape=mxgraph.basic.4_point_star_2;dx=0.8;fillColor=#f8cecc;strokeColor=#b85450;rotation=0;" parent="FE4h6nMI_-IRny2-kvsw-760" vertex="1">
          <mxGeometry x="114" y="88" width="20.828025477707005" height="18.181818181818183" as="geometry" />
        </mxCell>
        <mxCell id="FE4h6nMI_-IRny2-kvsw-788" value="" style="verticalLabelPosition=bottom;verticalAlign=top;html=1;shape=mxgraph.basic.4_point_star_2;dx=0.8;fillColor=#f8cecc;strokeColor=#b85450;rotation=0;" parent="FE4h6nMI_-IRny2-kvsw-760" vertex="1">
          <mxGeometry x="156" y="88" width="20.828025477707005" height="18.181818181818183" as="geometry" />
        </mxCell>
        <mxCell id="FE4h6nMI_-IRny2-kvsw-789" value="" style="verticalLabelPosition=bottom;verticalAlign=top;html=1;shape=mxgraph.basic.4_point_star_2;dx=0.8;fillColor=#f8cecc;strokeColor=#b85450;rotation=0;" parent="FE4h6nMI_-IRny2-kvsw-760" vertex="1">
          <mxGeometry x="198" y="88" width="20.828025477707005" height="18.181818181818183" as="geometry" />
        </mxCell>
        <mxCell id="FE4h6nMI_-IRny2-kvsw-790" value="" style="verticalLabelPosition=bottom;verticalAlign=top;html=1;shape=mxgraph.basic.4_point_star_2;dx=0.8;fillColor=#f8cecc;strokeColor=#b85450;rotation=0;" parent="FE4h6nMI_-IRny2-kvsw-760" vertex="1">
          <mxGeometry x="239" y="88" width="20.828025477707005" height="18.181818181818183" as="geometry" />
        </mxCell>
        <mxCell id="FE4h6nMI_-IRny2-kvsw-791" value="" style="verticalLabelPosition=bottom;verticalAlign=top;html=1;shape=mxgraph.basic.4_point_star_2;dx=0.8;fillColor=#f8cecc;strokeColor=#b85450;rotation=0;" parent="FE4h6nMI_-IRny2-kvsw-760" vertex="1">
          <mxGeometry x="281" y="88" width="20.828025477707005" height="18.181818181818183" as="geometry" />
        </mxCell>
        <mxCell id="FE4h6nMI_-IRny2-kvsw-792" value="" style="verticalLabelPosition=bottom;verticalAlign=top;html=1;shape=mxgraph.basic.4_point_star_2;dx=0.8;fillColor=#f8cecc;strokeColor=#b85450;rotation=0;" parent="FE4h6nMI_-IRny2-kvsw-760" vertex="1">
          <mxGeometry x="323" y="87" width="20.828025477707005" height="18.181818181818183" as="geometry" />
        </mxCell>
        <mxCell id="FE4h6nMI_-IRny2-kvsw-793" value="" style="verticalLabelPosition=bottom;verticalAlign=top;html=1;shape=mxgraph.basic.4_point_star_2;dx=0.8;fillColor=#f8cecc;strokeColor=#b85450;rotation=0;" parent="FE4h6nMI_-IRny2-kvsw-760" vertex="1">
          <mxGeometry x="357" y="88" width="20.828025477707005" height="18.181818181818183" as="geometry" />
        </mxCell>
        <mxCell id="FE4h6nMI_-IRny2-kvsw-794" value="" style="verticalLabelPosition=bottom;verticalAlign=top;html=1;shape=mxgraph.basic.4_point_star_2;dx=0.8;fillColor=#f8cecc;strokeColor=#b85450;rotation=0;" parent="FE4h6nMI_-IRny2-kvsw-760" vertex="1">
          <mxGeometry x="399" y="88" width="20.828025477707005" height="18.181818181818183" as="geometry" />
        </mxCell>
        <mxCell id="FE4h6nMI_-IRny2-kvsw-795" value="" style="verticalLabelPosition=bottom;verticalAlign=top;html=1;shape=mxgraph.basic.4_point_star_2;dx=0.8;fillColor=#f8cecc;strokeColor=#b85450;rotation=0;" parent="FE4h6nMI_-IRny2-kvsw-760" vertex="1">
          <mxGeometry x="441" y="88" width="20.828025477707005" height="18.181818181818183" as="geometry" />
        </mxCell>
        <mxCell id="FE4h6nMI_-IRny2-kvsw-796" value="" style="verticalLabelPosition=bottom;verticalAlign=top;html=1;shape=mxgraph.basic.4_point_star_2;dx=0.8;fillColor=#f8cecc;strokeColor=#b85450;rotation=0;" parent="FE4h6nMI_-IRny2-kvsw-760" vertex="1">
          <mxGeometry x="475" y="88" width="20.828025477707005" height="18.181818181818183" as="geometry" />
        </mxCell>
        <mxCell id="FE4h6nMI_-IRny2-kvsw-797" value="" style="verticalLabelPosition=bottom;verticalAlign=top;html=1;shape=mxgraph.basic.4_point_star_2;dx=0.8;fillColor=#f8cecc;strokeColor=#b85450;rotation=0;" parent="FE4h6nMI_-IRny2-kvsw-760" vertex="1">
          <mxGeometry x="517" y="88" width="20.828025477707005" height="18.181818181818183" as="geometry" />
        </mxCell>
        <mxCell id="FE4h6nMI_-IRny2-kvsw-798" value="" style="verticalLabelPosition=bottom;verticalAlign=top;html=1;shape=mxgraph.basic.8_point_star;fillColor=#e1d5e7;strokeColor=#9673a6;rotation=0;" parent="FE4h6nMI_-IRny2-kvsw-760" vertex="1">
          <mxGeometry x="261" y="85" width="27.770700636942674" height="24.242424242424242" as="geometry" />
        </mxCell>
        <mxCell id="FE4h6nMI_-IRny2-kvsw-799" value="" style="shape=crossbar;whiteSpace=wrap;html=1;rounded=1;strokeWidth=3;rotation=0;" parent="FE4h6nMI_-IRny2-kvsw-760" vertex="1">
          <mxGeometry y="49" width="444.3312101910828" height="12.121212121212121" as="geometry" />
        </mxCell>
        <mxCell id="FE4h6nMI_-IRny2-kvsw-800" value="" style="verticalLabelPosition=bottom;verticalAlign=top;html=1;shape=mxgraph.basic.4_point_star_2;dx=0.8;fillColor=#f8cecc;strokeColor=#b85450;rotation=0;" parent="FE4h6nMI_-IRny2-kvsw-760" vertex="1">
          <mxGeometry x="14" y="46" width="20.828025477707005" height="18.181818181818183" as="geometry" />
        </mxCell>
        <mxCell id="FE4h6nMI_-IRny2-kvsw-801" value="" style="verticalLabelPosition=bottom;verticalAlign=top;html=1;shape=mxgraph.basic.4_point_star_2;dx=0.8;fillColor=#f8cecc;strokeColor=#b85450;rotation=0;" parent="FE4h6nMI_-IRny2-kvsw-760" vertex="1">
          <mxGeometry x="56" y="46" width="20.828025477707005" height="18.181818181818183" as="geometry" />
        </mxCell>
        <mxCell id="FE4h6nMI_-IRny2-kvsw-802" value="" style="verticalLabelPosition=bottom;verticalAlign=top;html=1;shape=mxgraph.basic.4_point_star_2;dx=0.8;fillColor=#f8cecc;strokeColor=#b85450;rotation=0;" parent="FE4h6nMI_-IRny2-kvsw-760" vertex="1">
          <mxGeometry x="97" y="45" width="20.828025477707005" height="18.181818181818183" as="geometry" />
        </mxCell>
        <mxCell id="FE4h6nMI_-IRny2-kvsw-803" value="" style="verticalLabelPosition=bottom;verticalAlign=top;html=1;shape=mxgraph.basic.4_point_star_2;dx=0.8;fillColor=#f8cecc;strokeColor=#b85450;rotation=0;" parent="FE4h6nMI_-IRny2-kvsw-760" vertex="1">
          <mxGeometry x="139" y="46" width="20.828025477707005" height="18.181818181818183" as="geometry" />
        </mxCell>
        <mxCell id="FE4h6nMI_-IRny2-kvsw-804" value="" style="verticalLabelPosition=bottom;verticalAlign=top;html=1;shape=mxgraph.basic.4_point_star_2;dx=0.8;fillColor=#f8cecc;strokeColor=#b85450;rotation=0;" parent="FE4h6nMI_-IRny2-kvsw-760" vertex="1">
          <mxGeometry x="181" y="45" width="20.828025477707005" height="18.181818181818183" as="geometry" />
        </mxCell>
        <mxCell id="FE4h6nMI_-IRny2-kvsw-805" value="" style="verticalLabelPosition=bottom;verticalAlign=top;html=1;shape=mxgraph.basic.4_point_star_2;dx=0.8;fillColor=#f8cecc;strokeColor=#b85450;rotation=0;" parent="FE4h6nMI_-IRny2-kvsw-760" vertex="1">
          <mxGeometry x="222" y="46" width="20.828025477707005" height="18.181818181818183" as="geometry" />
        </mxCell>
        <mxCell id="FE4h6nMI_-IRny2-kvsw-806" value="" style="verticalLabelPosition=bottom;verticalAlign=top;html=1;shape=mxgraph.basic.4_point_star_2;dx=0.8;fillColor=#f8cecc;strokeColor=#b85450;rotation=0;" parent="FE4h6nMI_-IRny2-kvsw-760" vertex="1">
          <mxGeometry x="257" y="45" width="20.828025477707005" height="18.181818181818183" as="geometry" />
        </mxCell>
        <mxCell id="FE4h6nMI_-IRny2-kvsw-807" value="" style="verticalLabelPosition=bottom;verticalAlign=top;html=1;shape=mxgraph.basic.4_point_star_2;dx=0.8;fillColor=#f8cecc;strokeColor=#b85450;rotation=0;" parent="FE4h6nMI_-IRny2-kvsw-760" vertex="1">
          <mxGeometry x="299" y="45" width="20.828025477707005" height="18.181818181818183" as="geometry" />
        </mxCell>
        <mxCell id="FE4h6nMI_-IRny2-kvsw-808" value="" style="verticalLabelPosition=bottom;verticalAlign=top;html=1;shape=mxgraph.basic.4_point_star_2;dx=0.8;fillColor=#f8cecc;strokeColor=#b85450;rotation=0;" parent="FE4h6nMI_-IRny2-kvsw-760" vertex="1">
          <mxGeometry x="340" y="46" width="20.828025477707005" height="18.181818181818183" as="geometry" />
        </mxCell>
        <mxCell id="FE4h6nMI_-IRny2-kvsw-809" value="" style="verticalLabelPosition=bottom;verticalAlign=top;html=1;shape=mxgraph.basic.4_point_star_2;dx=0.8;fillColor=#f8cecc;strokeColor=#b85450;rotation=0;" parent="FE4h6nMI_-IRny2-kvsw-760" vertex="1">
          <mxGeometry x="375" y="45" width="20.828025477707005" height="18.181818181818183" as="geometry" />
        </mxCell>
        <mxCell id="FE4h6nMI_-IRny2-kvsw-810" value="" style="verticalLabelPosition=bottom;verticalAlign=top;html=1;shape=mxgraph.basic.4_point_star_2;dx=0.8;fillColor=#f8cecc;strokeColor=#b85450;rotation=0;" parent="FE4h6nMI_-IRny2-kvsw-760" vertex="1">
          <mxGeometry x="417" y="45" width="20.828025477707005" height="18.181818181818183" as="geometry" />
        </mxCell>
        <mxCell id="FE4h6nMI_-IRny2-kvsw-811" value="" style="verticalLabelPosition=bottom;verticalAlign=top;html=1;shape=mxgraph.basic.donut;dx=25;fillColor=#fff2cc;strokeColor=#d6b656;rotation=0;" parent="FE4h6nMI_-IRny2-kvsw-760" vertex="1">
          <mxGeometry x="382" y="91" width="13.885350318471337" height="12.121212121212121" as="geometry" />
        </mxCell>
        <mxCell id="FE4h6nMI_-IRny2-kvsw-812" value="" style="shape=crossbar;whiteSpace=wrap;html=1;rounded=1;strokeWidth=3;rotation=0;" parent="FE4h6nMI_-IRny2-kvsw-760" vertex="1">
          <mxGeometry x="97" y="3" width="444.3312101910828" height="12.121212121212121" as="geometry" />
        </mxCell>
        <mxCell id="FE4h6nMI_-IRny2-kvsw-813" value="" style="verticalLabelPosition=bottom;verticalAlign=top;html=1;shape=mxgraph.basic.4_point_star_2;dx=0.8;fillColor=#f8cecc;strokeColor=#b85450;rotation=0;" parent="FE4h6nMI_-IRny2-kvsw-760" vertex="1">
          <mxGeometry x="111" width="20.828025477707005" height="18.181818181818183" as="geometry" />
        </mxCell>
        <mxCell id="FE4h6nMI_-IRny2-kvsw-814" value="" style="verticalLabelPosition=bottom;verticalAlign=top;html=1;shape=mxgraph.basic.4_point_star_2;dx=0.8;fillColor=#f8cecc;strokeColor=#b85450;rotation=0;" parent="FE4h6nMI_-IRny2-kvsw-760" vertex="1">
          <mxGeometry x="153" width="20.828025477707005" height="18.181818181818183" as="geometry" />
        </mxCell>
        <mxCell id="FE4h6nMI_-IRny2-kvsw-815" value="" style="verticalLabelPosition=bottom;verticalAlign=top;html=1;shape=mxgraph.basic.4_point_star_2;dx=0.8;fillColor=#f8cecc;strokeColor=#b85450;rotation=0;" parent="FE4h6nMI_-IRny2-kvsw-760" vertex="1">
          <mxGeometry x="194" width="20.828025477707005" height="18.181818181818183" as="geometry" />
        </mxCell>
        <mxCell id="FE4h6nMI_-IRny2-kvsw-816" value="" style="verticalLabelPosition=bottom;verticalAlign=top;html=1;shape=mxgraph.basic.4_point_star_2;dx=0.8;fillColor=#f8cecc;strokeColor=#b85450;rotation=0;" parent="FE4h6nMI_-IRny2-kvsw-760" vertex="1">
          <mxGeometry x="236" width="20.828025477707005" height="18.181818181818183" as="geometry" />
        </mxCell>
        <mxCell id="FE4h6nMI_-IRny2-kvsw-817" value="" style="verticalLabelPosition=bottom;verticalAlign=top;html=1;shape=mxgraph.basic.4_point_star_2;dx=0.8;fillColor=#f8cecc;strokeColor=#b85450;rotation=0;" parent="FE4h6nMI_-IRny2-kvsw-760" vertex="1">
          <mxGeometry x="278" width="20.828025477707005" height="18.181818181818183" as="geometry" />
        </mxCell>
        <mxCell id="FE4h6nMI_-IRny2-kvsw-818" value="" style="verticalLabelPosition=bottom;verticalAlign=top;html=1;shape=mxgraph.basic.4_point_star_2;dx=0.8;fillColor=#f8cecc;strokeColor=#b85450;rotation=0;" parent="FE4h6nMI_-IRny2-kvsw-760" vertex="1">
          <mxGeometry x="320" width="20.828025477707005" height="18.181818181818183" as="geometry" />
        </mxCell>
        <mxCell id="FE4h6nMI_-IRny2-kvsw-819" value="" style="verticalLabelPosition=bottom;verticalAlign=top;html=1;shape=mxgraph.basic.4_point_star_2;dx=0.8;fillColor=#f8cecc;strokeColor=#b85450;rotation=0;" parent="FE4h6nMI_-IRny2-kvsw-760" vertex="1">
          <mxGeometry x="354" width="20.828025477707005" height="18.181818181818183" as="geometry" />
        </mxCell>
        <mxCell id="FE4h6nMI_-IRny2-kvsw-820" value="" style="verticalLabelPosition=bottom;verticalAlign=top;html=1;shape=mxgraph.basic.4_point_star_2;dx=0.8;fillColor=#f8cecc;strokeColor=#b85450;rotation=0;" parent="FE4h6nMI_-IRny2-kvsw-760" vertex="1">
          <mxGeometry x="396" width="20.828025477707005" height="18.181818181818183" as="geometry" />
        </mxCell>
        <mxCell id="FE4h6nMI_-IRny2-kvsw-821" value="" style="verticalLabelPosition=bottom;verticalAlign=top;html=1;shape=mxgraph.basic.4_point_star_2;dx=0.8;fillColor=#f8cecc;strokeColor=#b85450;rotation=0;" parent="FE4h6nMI_-IRny2-kvsw-760" vertex="1">
          <mxGeometry x="438" width="20.828025477707005" height="18.181818181818183" as="geometry" />
        </mxCell>
        <mxCell id="FE4h6nMI_-IRny2-kvsw-822" value="" style="verticalLabelPosition=bottom;verticalAlign=top;html=1;shape=mxgraph.basic.4_point_star_2;dx=0.8;fillColor=#f8cecc;strokeColor=#b85450;rotation=0;" parent="FE4h6nMI_-IRny2-kvsw-760" vertex="1">
          <mxGeometry x="472" width="20.828025477707005" height="18.181818181818183" as="geometry" />
        </mxCell>
        <mxCell id="FE4h6nMI_-IRny2-kvsw-823" value="" style="verticalLabelPosition=bottom;verticalAlign=top;html=1;shape=mxgraph.basic.4_point_star_2;dx=0.8;fillColor=#f8cecc;strokeColor=#b85450;rotation=0;" parent="FE4h6nMI_-IRny2-kvsw-760" vertex="1">
          <mxGeometry x="514" width="20.828025477707005" height="18.181818181818183" as="geometry" />
        </mxCell>
        <mxCell id="FE4h6nMI_-IRny2-kvsw-824" value="" style="group;rotation=-20;" parent="1" vertex="1" connectable="0">
          <mxGeometry x="480.00069814155705" y="-479.9957449719944" width="545" height="200" as="geometry" />
        </mxCell>
        <mxCell id="FE4h6nMI_-IRny2-kvsw-825" value="" style="shape=crossbar;whiteSpace=wrap;html=1;rounded=1;strokeWidth=3;rotation=-20;" parent="FE4h6nMI_-IRny2-kvsw-824" vertex="1">
          <mxGeometry x="62" y="183" width="444.3312101910828" height="12.121212121212121" as="geometry" />
        </mxCell>
        <mxCell id="FE4h6nMI_-IRny2-kvsw-826" value="" style="verticalLabelPosition=bottom;verticalAlign=top;html=1;shape=mxgraph.basic.4_point_star_2;dx=0.8;fillColor=#f8cecc;strokeColor=#b85450;rotation=-20;" parent="FE4h6nMI_-IRny2-kvsw-824" vertex="1">
          <mxGeometry x="89" y="248" width="20.828025477707005" height="18.181818181818183" as="geometry" />
        </mxCell>
        <mxCell id="FE4h6nMI_-IRny2-kvsw-827" value="" style="verticalLabelPosition=bottom;verticalAlign=top;html=1;shape=mxgraph.basic.4_point_star_2;dx=0.8;fillColor=#f8cecc;strokeColor=#b85450;rotation=-20;" parent="FE4h6nMI_-IRny2-kvsw-824" vertex="1">
          <mxGeometry x="127" y="234" width="20.828025477707005" height="18.181818181818183" as="geometry" />
        </mxCell>
        <mxCell id="FE4h6nMI_-IRny2-kvsw-828" value="" style="verticalLabelPosition=bottom;verticalAlign=top;html=1;shape=mxgraph.basic.4_point_star_2;dx=0.8;fillColor=#f8cecc;strokeColor=#b85450;rotation=-20;" parent="FE4h6nMI_-IRny2-kvsw-824" vertex="1">
          <mxGeometry x="166" y="220" width="20.828025477707005" height="18.181818181818183" as="geometry" />
        </mxCell>
        <mxCell id="FE4h6nMI_-IRny2-kvsw-829" value="" style="verticalLabelPosition=bottom;verticalAlign=top;html=1;shape=mxgraph.basic.4_point_star_2;dx=0.8;fillColor=#f8cecc;strokeColor=#b85450;rotation=-20;" parent="FE4h6nMI_-IRny2-kvsw-824" vertex="1">
          <mxGeometry x="205" y="204" width="20.828025477707005" height="18.181818181818183" as="geometry" />
        </mxCell>
        <mxCell id="FE4h6nMI_-IRny2-kvsw-830" value="" style="verticalLabelPosition=bottom;verticalAlign=top;html=1;shape=mxgraph.basic.4_point_star_2;dx=0.8;fillColor=#f8cecc;strokeColor=#b85450;rotation=-20;" parent="FE4h6nMI_-IRny2-kvsw-824" vertex="1">
          <mxGeometry x="245" y="191" width="20.828025477707005" height="18.181818181818183" as="geometry" />
        </mxCell>
        <mxCell id="FE4h6nMI_-IRny2-kvsw-831" value="" style="verticalLabelPosition=bottom;verticalAlign=top;html=1;shape=mxgraph.basic.4_point_star_2;dx=0.8;fillColor=#f8cecc;strokeColor=#b85450;rotation=-20;" parent="FE4h6nMI_-IRny2-kvsw-824" vertex="1">
          <mxGeometry x="283" y="176" width="20.828025477707005" height="18.181818181818183" as="geometry" />
        </mxCell>
        <mxCell id="FE4h6nMI_-IRny2-kvsw-832" value="" style="verticalLabelPosition=bottom;verticalAlign=top;html=1;shape=mxgraph.basic.4_point_star_2;dx=0.8;fillColor=#f8cecc;strokeColor=#b85450;rotation=-20;" parent="FE4h6nMI_-IRny2-kvsw-824" vertex="1">
          <mxGeometry x="317" y="165" width="20.828025477707005" height="18.181818181818183" as="geometry" />
        </mxCell>
        <mxCell id="FE4h6nMI_-IRny2-kvsw-833" value="" style="verticalLabelPosition=bottom;verticalAlign=top;html=1;shape=mxgraph.basic.4_point_star_2;dx=0.8;fillColor=#f8cecc;strokeColor=#b85450;rotation=-20;" parent="FE4h6nMI_-IRny2-kvsw-824" vertex="1">
          <mxGeometry x="356" y="150" width="20.828025477707005" height="18.181818181818183" as="geometry" />
        </mxCell>
        <mxCell id="FE4h6nMI_-IRny2-kvsw-834" value="" style="verticalLabelPosition=bottom;verticalAlign=top;html=1;shape=mxgraph.basic.4_point_star_2;dx=0.8;fillColor=#f8cecc;strokeColor=#b85450;rotation=-20;" parent="FE4h6nMI_-IRny2-kvsw-824" vertex="1">
          <mxGeometry x="394" y="135" width="20.828025477707005" height="18.181818181818183" as="geometry" />
        </mxCell>
        <mxCell id="FE4h6nMI_-IRny2-kvsw-835" value="" style="verticalLabelPosition=bottom;verticalAlign=top;html=1;shape=mxgraph.basic.4_point_star_2;dx=0.8;fillColor=#f8cecc;strokeColor=#b85450;rotation=-20;" parent="FE4h6nMI_-IRny2-kvsw-824" vertex="1">
          <mxGeometry x="427" y="124" width="20.828025477707005" height="18.181818181818183" as="geometry" />
        </mxCell>
        <mxCell id="FE4h6nMI_-IRny2-kvsw-836" value="" style="verticalLabelPosition=bottom;verticalAlign=top;html=1;shape=mxgraph.basic.4_point_star_2;dx=0.8;fillColor=#f8cecc;strokeColor=#b85450;rotation=-20;" parent="FE4h6nMI_-IRny2-kvsw-824" vertex="1">
          <mxGeometry x="467" y="110" width="20.828025477707005" height="18.181818181818183" as="geometry" />
        </mxCell>
        <mxCell id="FE4h6nMI_-IRny2-kvsw-837" value="" style="verticalLabelPosition=bottom;verticalAlign=top;html=1;shape=mxgraph.basic.8_point_star;fillColor=#e1d5e7;strokeColor=#9673a6;rotation=-20;" parent="FE4h6nMI_-IRny2-kvsw-824" vertex="1">
          <mxGeometry x="225" y="193" width="27.770700636942674" height="24.242424242424242" as="geometry" />
        </mxCell>
        <mxCell id="FE4h6nMI_-IRny2-kvsw-838" value="" style="shape=crossbar;whiteSpace=wrap;html=1;rounded=1;strokeWidth=3;rotation=-20;" parent="FE4h6nMI_-IRny2-kvsw-824" vertex="1">
          <mxGeometry x="48" y="143" width="444.3312101910828" height="12.121212121212121" as="geometry" />
        </mxCell>
        <mxCell id="FE4h6nMI_-IRny2-kvsw-839" value="" style="verticalLabelPosition=bottom;verticalAlign=top;html=1;shape=mxgraph.basic.4_point_star_2;dx=0.8;fillColor=#f8cecc;strokeColor=#b85450;rotation=-20;" parent="FE4h6nMI_-IRny2-kvsw-824" vertex="1">
          <mxGeometry x="74" y="208" width="20.828025477707005" height="18.181818181818183" as="geometry" />
        </mxCell>
        <mxCell id="FE4h6nMI_-IRny2-kvsw-840" value="" style="verticalLabelPosition=bottom;verticalAlign=top;html=1;shape=mxgraph.basic.4_point_star_2;dx=0.8;fillColor=#f8cecc;strokeColor=#b85450;rotation=-20;" parent="FE4h6nMI_-IRny2-kvsw-824" vertex="1">
          <mxGeometry x="112" y="194" width="20.828025477707005" height="18.181818181818183" as="geometry" />
        </mxCell>
        <mxCell id="FE4h6nMI_-IRny2-kvsw-841" value="" style="verticalLabelPosition=bottom;verticalAlign=top;html=1;shape=mxgraph.basic.4_point_star_2;dx=0.8;fillColor=#f8cecc;strokeColor=#b85450;rotation=-20;" parent="FE4h6nMI_-IRny2-kvsw-824" vertex="1">
          <mxGeometry x="152" y="180" width="20.828025477707005" height="18.181818181818183" as="geometry" />
        </mxCell>
        <mxCell id="FE4h6nMI_-IRny2-kvsw-842" value="" style="verticalLabelPosition=bottom;verticalAlign=top;html=1;shape=mxgraph.basic.4_point_star_2;dx=0.8;fillColor=#f8cecc;strokeColor=#b85450;rotation=-20;" parent="FE4h6nMI_-IRny2-kvsw-824" vertex="1">
          <mxGeometry x="191" y="165" width="20.828025477707005" height="18.181818181818183" as="geometry" />
        </mxCell>
        <mxCell id="FE4h6nMI_-IRny2-kvsw-843" value="" style="verticalLabelPosition=bottom;verticalAlign=top;html=1;shape=mxgraph.basic.4_point_star_2;dx=0.8;fillColor=#f8cecc;strokeColor=#b85450;rotation=-20;" parent="FE4h6nMI_-IRny2-kvsw-824" vertex="1">
          <mxGeometry x="230" y="150" width="20.828025477707005" height="18.181818181818183" as="geometry" />
        </mxCell>
        <mxCell id="FE4h6nMI_-IRny2-kvsw-844" value="" style="verticalLabelPosition=bottom;verticalAlign=top;html=1;shape=mxgraph.basic.4_point_star_2;dx=0.8;fillColor=#f8cecc;strokeColor=#b85450;rotation=-20;" parent="FE4h6nMI_-IRny2-kvsw-824" vertex="1">
          <mxGeometry x="269" y="136" width="20.828025477707005" height="18.181818181818183" as="geometry" />
        </mxCell>
        <mxCell id="FE4h6nMI_-IRny2-kvsw-845" value="" style="verticalLabelPosition=bottom;verticalAlign=top;html=1;shape=mxgraph.basic.4_point_star_2;dx=0.8;fillColor=#f8cecc;strokeColor=#b85450;rotation=-20;" parent="FE4h6nMI_-IRny2-kvsw-824" vertex="1">
          <mxGeometry x="302" y="124" width="20.828025477707005" height="18.181818181818183" as="geometry" />
        </mxCell>
        <mxCell id="FE4h6nMI_-IRny2-kvsw-846" value="" style="verticalLabelPosition=bottom;verticalAlign=top;html=1;shape=mxgraph.basic.4_point_star_2;dx=0.8;fillColor=#f8cecc;strokeColor=#b85450;rotation=-20;" parent="FE4h6nMI_-IRny2-kvsw-824" vertex="1">
          <mxGeometry x="341" y="110" width="20.828025477707005" height="18.181818181818183" as="geometry" />
        </mxCell>
        <mxCell id="FE4h6nMI_-IRny2-kvsw-847" value="" style="verticalLabelPosition=bottom;verticalAlign=top;html=1;shape=mxgraph.basic.4_point_star_2;dx=0.8;fillColor=#f8cecc;strokeColor=#b85450;rotation=-20;" parent="FE4h6nMI_-IRny2-kvsw-824" vertex="1">
          <mxGeometry x="380" y="96" width="20.828025477707005" height="18.181818181818183" as="geometry" />
        </mxCell>
        <mxCell id="FE4h6nMI_-IRny2-kvsw-848" value="" style="verticalLabelPosition=bottom;verticalAlign=top;html=1;shape=mxgraph.basic.4_point_star_2;dx=0.8;fillColor=#f8cecc;strokeColor=#b85450;rotation=-20;" parent="FE4h6nMI_-IRny2-kvsw-824" vertex="1">
          <mxGeometry x="413" y="84" width="20.828025477707005" height="18.181818181818183" as="geometry" />
        </mxCell>
        <mxCell id="FE4h6nMI_-IRny2-kvsw-849" value="" style="verticalLabelPosition=bottom;verticalAlign=top;html=1;shape=mxgraph.basic.4_point_star_2;dx=0.8;fillColor=#f8cecc;strokeColor=#b85450;rotation=-20;" parent="FE4h6nMI_-IRny2-kvsw-824" vertex="1">
          <mxGeometry x="453" y="71" width="20.828025477707005" height="18.181818181818183" as="geometry" />
        </mxCell>
        <mxCell id="FE4h6nMI_-IRny2-kvsw-850" value="" style="shape=crossbar;whiteSpace=wrap;html=1;rounded=1;strokeWidth=3;rotation=-20;" parent="FE4h6nMI_-IRny2-kvsw-824" vertex="1">
          <mxGeometry x="97" y="74" width="444.3312101910828" height="12.121212121212121" as="geometry" />
        </mxCell>
        <mxCell id="FE4h6nMI_-IRny2-kvsw-851" value="" style="verticalLabelPosition=bottom;verticalAlign=top;html=1;shape=mxgraph.basic.4_point_star_2;dx=0.8;fillColor=#f8cecc;strokeColor=#b85450;rotation=-20;" parent="FE4h6nMI_-IRny2-kvsw-824" vertex="1">
          <mxGeometry x="122" y="139" width="20.828025477707005" height="18.181818181818183" as="geometry" />
        </mxCell>
        <mxCell id="FE4h6nMI_-IRny2-kvsw-852" value="" style="verticalLabelPosition=bottom;verticalAlign=top;html=1;shape=mxgraph.basic.4_point_star_2;dx=0.8;fillColor=#f8cecc;strokeColor=#b85450;rotation=-20;" parent="FE4h6nMI_-IRny2-kvsw-824" vertex="1">
          <mxGeometry x="161" y="124" width="20.828025477707005" height="18.181818181818183" as="geometry" />
        </mxCell>
        <mxCell id="FE4h6nMI_-IRny2-kvsw-853" value="" style="verticalLabelPosition=bottom;verticalAlign=top;html=1;shape=mxgraph.basic.4_point_star_2;dx=0.8;fillColor=#f8cecc;strokeColor=#b85450;rotation=-20;" parent="FE4h6nMI_-IRny2-kvsw-824" vertex="1">
          <mxGeometry x="201" y="110" width="20.828025477707005" height="18.181818181818183" as="geometry" />
        </mxCell>
        <mxCell id="FE4h6nMI_-IRny2-kvsw-854" value="" style="verticalLabelPosition=bottom;verticalAlign=top;html=1;shape=mxgraph.basic.4_point_star_2;dx=0.8;fillColor=#f8cecc;strokeColor=#b85450;rotation=-20;" parent="FE4h6nMI_-IRny2-kvsw-824" vertex="1">
          <mxGeometry x="239" y="96" width="20.828025477707005" height="18.181818181818183" as="geometry" />
        </mxCell>
        <mxCell id="FE4h6nMI_-IRny2-kvsw-855" value="" style="verticalLabelPosition=bottom;verticalAlign=top;html=1;shape=mxgraph.basic.4_point_star_2;dx=0.8;fillColor=#f8cecc;strokeColor=#b85450;rotation=-20;" parent="FE4h6nMI_-IRny2-kvsw-824" vertex="1">
          <mxGeometry x="279" y="82" width="20.828025477707005" height="18.181818181818183" as="geometry" />
        </mxCell>
        <mxCell id="FE4h6nMI_-IRny2-kvsw-856" value="" style="verticalLabelPosition=bottom;verticalAlign=top;html=1;shape=mxgraph.basic.4_point_star_2;dx=0.8;fillColor=#f8cecc;strokeColor=#b85450;rotation=-20;" parent="FE4h6nMI_-IRny2-kvsw-824" vertex="1">
          <mxGeometry x="318" y="66" width="20.828025477707005" height="18.181818181818183" as="geometry" />
        </mxCell>
        <mxCell id="FE4h6nMI_-IRny2-kvsw-857" value="" style="verticalLabelPosition=bottom;verticalAlign=top;html=1;shape=mxgraph.basic.4_point_star_2;dx=0.8;fillColor=#f8cecc;strokeColor=#b85450;rotation=-20;" parent="FE4h6nMI_-IRny2-kvsw-824" vertex="1">
          <mxGeometry x="350" y="56" width="20.828025477707005" height="18.181818181818183" as="geometry" />
        </mxCell>
        <mxCell id="FE4h6nMI_-IRny2-kvsw-858" value="" style="verticalLabelPosition=bottom;verticalAlign=top;html=1;shape=mxgraph.basic.4_point_star_2;dx=0.8;fillColor=#f8cecc;strokeColor=#b85450;rotation=-20;" parent="FE4h6nMI_-IRny2-kvsw-824" vertex="1">
          <mxGeometry x="390" y="41" width="20.828025477707005" height="18.181818181818183" as="geometry" />
        </mxCell>
        <mxCell id="FE4h6nMI_-IRny2-kvsw-859" value="" style="verticalLabelPosition=bottom;verticalAlign=top;html=1;shape=mxgraph.basic.4_point_star_2;dx=0.8;fillColor=#f8cecc;strokeColor=#b85450;rotation=-20;" parent="FE4h6nMI_-IRny2-kvsw-824" vertex="1">
          <mxGeometry x="429" y="27" width="20.828025477707005" height="18.181818181818183" as="geometry" />
        </mxCell>
        <mxCell id="FE4h6nMI_-IRny2-kvsw-860" value="" style="verticalLabelPosition=bottom;verticalAlign=top;html=1;shape=mxgraph.basic.4_point_star_2;dx=0.8;fillColor=#f8cecc;strokeColor=#b85450;rotation=-20;" parent="FE4h6nMI_-IRny2-kvsw-824" vertex="1">
          <mxGeometry x="461" y="15" width="20.828025477707005" height="18.181818181818183" as="geometry" />
        </mxCell>
        <mxCell id="FE4h6nMI_-IRny2-kvsw-861" value="" style="verticalLabelPosition=bottom;verticalAlign=top;html=1;shape=mxgraph.basic.4_point_star_2;dx=0.8;fillColor=#f8cecc;strokeColor=#b85450;rotation=-20;" parent="FE4h6nMI_-IRny2-kvsw-824" vertex="1">
          <mxGeometry x="501" y="1" width="20.828025477707005" height="18.181818181818183" as="geometry" />
        </mxCell>
        <mxCell id="FE4h6nMI_-IRny2-kvsw-862" value="" style="verticalLabelPosition=bottom;verticalAlign=top;html=1;shape=mxgraph.basic.8_point_star;fillColor=#e1d5e7;strokeColor=#9673a6;rotation=-20;" parent="FE4h6nMI_-IRny2-kvsw-824" vertex="1">
          <mxGeometry x="260" y="84" width="27.770700636942674" height="24.242424242424242" as="geometry" />
        </mxCell>
        <mxCell id="FE4h6nMI_-IRny2-kvsw-863" value="" style="shape=crossbar;whiteSpace=wrap;html=1;rounded=1;strokeWidth=3;rotation=-20;" parent="FE4h6nMI_-IRny2-kvsw-824" vertex="1">
          <mxGeometry x="-12" y="69" width="444.3312101910828" height="12.121212121212121" as="geometry" />
        </mxCell>
        <mxCell id="FE4h6nMI_-IRny2-kvsw-864" value="" style="verticalLabelPosition=bottom;verticalAlign=top;html=1;shape=mxgraph.basic.4_point_star_2;dx=0.8;fillColor=#f8cecc;strokeColor=#b85450;rotation=-20;" parent="FE4h6nMI_-IRny2-kvsw-824" vertex="1">
          <mxGeometry x="14" y="134" width="20.828025477707005" height="18.181818181818183" as="geometry" />
        </mxCell>
        <mxCell id="FE4h6nMI_-IRny2-kvsw-865" value="" style="verticalLabelPosition=bottom;verticalAlign=top;html=1;shape=mxgraph.basic.4_point_star_2;dx=0.8;fillColor=#f8cecc;strokeColor=#b85450;rotation=-20;" parent="FE4h6nMI_-IRny2-kvsw-824" vertex="1">
          <mxGeometry x="53" y="119" width="20.828025477707005" height="18.181818181818183" as="geometry" />
        </mxCell>
        <mxCell id="FE4h6nMI_-IRny2-kvsw-866" value="" style="verticalLabelPosition=bottom;verticalAlign=top;html=1;shape=mxgraph.basic.4_point_star_2;dx=0.8;fillColor=#f8cecc;strokeColor=#b85450;rotation=-20;" parent="FE4h6nMI_-IRny2-kvsw-824" vertex="1">
          <mxGeometry x="91" y="104" width="20.828025477707005" height="18.181818181818183" as="geometry" />
        </mxCell>
        <mxCell id="FE4h6nMI_-IRny2-kvsw-867" value="" style="verticalLabelPosition=bottom;verticalAlign=top;html=1;shape=mxgraph.basic.4_point_star_2;dx=0.8;fillColor=#f8cecc;strokeColor=#b85450;rotation=-20;" parent="FE4h6nMI_-IRny2-kvsw-824" vertex="1">
          <mxGeometry x="131" y="91" width="20.828025477707005" height="18.181818181818183" as="geometry" />
        </mxCell>
        <mxCell id="FE4h6nMI_-IRny2-kvsw-868" value="" style="verticalLabelPosition=bottom;verticalAlign=top;html=1;shape=mxgraph.basic.4_point_star_2;dx=0.8;fillColor=#f8cecc;strokeColor=#b85450;rotation=-20;" parent="FE4h6nMI_-IRny2-kvsw-824" vertex="1">
          <mxGeometry x="170" y="76" width="20.828025477707005" height="18.181818181818183" as="geometry" />
        </mxCell>
        <mxCell id="FE4h6nMI_-IRny2-kvsw-869" value="" style="verticalLabelPosition=bottom;verticalAlign=top;html=1;shape=mxgraph.basic.4_point_star_2;dx=0.8;fillColor=#f8cecc;strokeColor=#b85450;rotation=-20;" parent="FE4h6nMI_-IRny2-kvsw-824" vertex="1">
          <mxGeometry x="209" y="62" width="20.828025477707005" height="18.181818181818183" as="geometry" />
        </mxCell>
        <mxCell id="FE4h6nMI_-IRny2-kvsw-870" value="" style="verticalLabelPosition=bottom;verticalAlign=top;html=1;shape=mxgraph.basic.4_point_star_2;dx=0.8;fillColor=#f8cecc;strokeColor=#b85450;rotation=-20;" parent="FE4h6nMI_-IRny2-kvsw-824" vertex="1">
          <mxGeometry x="242" y="50" width="20.828025477707005" height="18.181818181818183" as="geometry" />
        </mxCell>
        <mxCell id="FE4h6nMI_-IRny2-kvsw-871" value="" style="verticalLabelPosition=bottom;verticalAlign=top;html=1;shape=mxgraph.basic.4_point_star_2;dx=0.8;fillColor=#f8cecc;strokeColor=#b85450;rotation=-20;" parent="FE4h6nMI_-IRny2-kvsw-824" vertex="1">
          <mxGeometry x="281" y="35" width="20.828025477707005" height="18.181818181818183" as="geometry" />
        </mxCell>
        <mxCell id="FE4h6nMI_-IRny2-kvsw-872" value="" style="verticalLabelPosition=bottom;verticalAlign=top;html=1;shape=mxgraph.basic.4_point_star_2;dx=0.8;fillColor=#f8cecc;strokeColor=#b85450;rotation=-20;" parent="FE4h6nMI_-IRny2-kvsw-824" vertex="1">
          <mxGeometry x="320" y="22" width="20.828025477707005" height="18.181818181818183" as="geometry" />
        </mxCell>
        <mxCell id="FE4h6nMI_-IRny2-kvsw-873" value="" style="verticalLabelPosition=bottom;verticalAlign=top;html=1;shape=mxgraph.basic.4_point_star_2;dx=0.8;fillColor=#f8cecc;strokeColor=#b85450;rotation=-20;" parent="FE4h6nMI_-IRny2-kvsw-824" vertex="1">
          <mxGeometry x="352" y="9" width="20.828025477707005" height="18.181818181818183" as="geometry" />
        </mxCell>
        <mxCell id="FE4h6nMI_-IRny2-kvsw-874" value="" style="verticalLabelPosition=bottom;verticalAlign=top;html=1;shape=mxgraph.basic.4_point_star_2;dx=0.8;fillColor=#f8cecc;strokeColor=#b85450;rotation=-20;" parent="FE4h6nMI_-IRny2-kvsw-824" vertex="1">
          <mxGeometry x="392" y="-5" width="20.828025477707005" height="18.181818181818183" as="geometry" />
        </mxCell>
        <mxCell id="FE4h6nMI_-IRny2-kvsw-875" value="" style="verticalLabelPosition=bottom;verticalAlign=top;html=1;shape=mxgraph.basic.donut;dx=25;fillColor=#fff2cc;strokeColor=#d6b656;rotation=-20;" parent="FE4h6nMI_-IRny2-kvsw-824" vertex="1">
          <mxGeometry x="374" y="51" width="13.885350318471337" height="12.121212121212121" as="geometry" />
        </mxCell>
        <mxCell id="FE4h6nMI_-IRny2-kvsw-876" value="" style="shape=crossbar;whiteSpace=wrap;html=1;rounded=1;strokeWidth=3;rotation=-20;" parent="FE4h6nMI_-IRny2-kvsw-824" vertex="1">
          <mxGeometry x="63" y="-7" width="444.3312101910828" height="12.121212121212121" as="geometry" />
        </mxCell>
        <mxCell id="FE4h6nMI_-IRny2-kvsw-877" value="" style="verticalLabelPosition=bottom;verticalAlign=top;html=1;shape=mxgraph.basic.4_point_star_2;dx=0.8;fillColor=#f8cecc;strokeColor=#b85450;rotation=-20;" parent="FE4h6nMI_-IRny2-kvsw-824" vertex="1">
          <mxGeometry x="89" y="57" width="20.828025477707005" height="18.181818181818183" as="geometry" />
        </mxCell>
        <mxCell id="FE4h6nMI_-IRny2-kvsw-878" value="" style="verticalLabelPosition=bottom;verticalAlign=top;html=1;shape=mxgraph.basic.4_point_star_2;dx=0.8;fillColor=#f8cecc;strokeColor=#b85450;rotation=-20;" parent="FE4h6nMI_-IRny2-kvsw-824" vertex="1">
          <mxGeometry x="128" y="43" width="20.828025477707005" height="18.181818181818183" as="geometry" />
        </mxCell>
        <mxCell id="FE4h6nMI_-IRny2-kvsw-879" value="" style="verticalLabelPosition=bottom;verticalAlign=top;html=1;shape=mxgraph.basic.4_point_star_2;dx=0.8;fillColor=#f8cecc;strokeColor=#b85450;rotation=-20;" parent="FE4h6nMI_-IRny2-kvsw-824" vertex="1">
          <mxGeometry x="167" y="29" width="20.828025477707005" height="18.181818181818183" as="geometry" />
        </mxCell>
        <mxCell id="FE4h6nMI_-IRny2-kvsw-880" value="" style="verticalLabelPosition=bottom;verticalAlign=top;html=1;shape=mxgraph.basic.4_point_star_2;dx=0.8;fillColor=#f8cecc;strokeColor=#b85450;rotation=-20;" parent="FE4h6nMI_-IRny2-kvsw-824" vertex="1">
          <mxGeometry x="206" y="14" width="20.828025477707005" height="18.181818181818183" as="geometry" />
        </mxCell>
        <mxCell id="FE4h6nMI_-IRny2-kvsw-881" value="" style="verticalLabelPosition=bottom;verticalAlign=top;html=1;shape=mxgraph.basic.4_point_star_2;dx=0.8;fillColor=#f8cecc;strokeColor=#b85450;rotation=-20;" parent="FE4h6nMI_-IRny2-kvsw-824" vertex="1">
          <mxGeometry x="246" width="20.828025477707005" height="18.181818181818183" as="geometry" />
        </mxCell>
        <mxCell id="FE4h6nMI_-IRny2-kvsw-882" value="" style="verticalLabelPosition=bottom;verticalAlign=top;html=1;shape=mxgraph.basic.4_point_star_2;dx=0.8;fillColor=#f8cecc;strokeColor=#b85450;rotation=-20;" parent="FE4h6nMI_-IRny2-kvsw-824" vertex="1">
          <mxGeometry x="285" y="-14" width="20.828025477707005" height="18.181818181818183" as="geometry" />
        </mxCell>
        <mxCell id="FE4h6nMI_-IRny2-kvsw-883" value="" style="verticalLabelPosition=bottom;verticalAlign=top;html=1;shape=mxgraph.basic.4_point_star_2;dx=0.8;fillColor=#f8cecc;strokeColor=#b85450;rotation=-20;" parent="FE4h6nMI_-IRny2-kvsw-824" vertex="1">
          <mxGeometry x="317" y="-26" width="20.828025477707005" height="18.181818181818183" as="geometry" />
        </mxCell>
        <mxCell id="FE4h6nMI_-IRny2-kvsw-884" value="" style="verticalLabelPosition=bottom;verticalAlign=top;html=1;shape=mxgraph.basic.4_point_star_2;dx=0.8;fillColor=#f8cecc;strokeColor=#b85450;rotation=-20;" parent="FE4h6nMI_-IRny2-kvsw-824" vertex="1">
          <mxGeometry x="357" y="-40" width="20.828025477707005" height="18.181818181818183" as="geometry" />
        </mxCell>
        <mxCell id="FE4h6nMI_-IRny2-kvsw-885" value="" style="verticalLabelPosition=bottom;verticalAlign=top;html=1;shape=mxgraph.basic.4_point_star_2;dx=0.8;fillColor=#f8cecc;strokeColor=#b85450;rotation=-20;" parent="FE4h6nMI_-IRny2-kvsw-824" vertex="1">
          <mxGeometry x="396" y="-55" width="20.828025477707005" height="18.181818181818183" as="geometry" />
        </mxCell>
        <mxCell id="FE4h6nMI_-IRny2-kvsw-886" value="" style="verticalLabelPosition=bottom;verticalAlign=top;html=1;shape=mxgraph.basic.4_point_star_2;dx=0.8;fillColor=#f8cecc;strokeColor=#b85450;rotation=-20;" parent="FE4h6nMI_-IRny2-kvsw-824" vertex="1">
          <mxGeometry x="428" y="-66" width="20.828025477707005" height="18.181818181818183" as="geometry" />
        </mxCell>
        <mxCell id="FE4h6nMI_-IRny2-kvsw-887" value="" style="verticalLabelPosition=bottom;verticalAlign=top;html=1;shape=mxgraph.basic.4_point_star_2;dx=0.8;fillColor=#f8cecc;strokeColor=#b85450;rotation=-20;" parent="FE4h6nMI_-IRny2-kvsw-824" vertex="1">
          <mxGeometry x="468" y="-81" width="20.828025477707005" height="18.181818181818183" as="geometry" />
        </mxCell>
        <mxCell id="Tk5JDoCF1C5ECLQBPAMv-1" value="" style="shape=switch;whiteSpace=wrap;html=1;fillColor=#b0e3e6;strokeColor=#0e8088;" vertex="1" parent="FE4h6nMI_-IRny2-kvsw-824">
          <mxGeometry x="177" y="112.99" width="24" height="24.19" as="geometry" />
        </mxCell>
        <mxCell id="Tk5JDoCF1C5ECLQBPAMv-3" value="" style="shape=switch;whiteSpace=wrap;html=1;fillColor=#b0e3e6;strokeColor=#0e8088;" vertex="1" parent="1">
          <mxGeometry x="1060.000698141557" y="-736.2957449719944" width="24" height="24.19" as="geometry" />
        </mxCell>
        <mxCell id="FE4h6nMI_-IRny2-kvsw-1" value="" style="shape=crossbar;whiteSpace=wrap;html=1;rounded=1;strokeWidth=3;rotation=-25;" parent="1" vertex="1">
          <mxGeometry x="235" y="-775" width="444.3312101910828" height="12.121212121212121" as="geometry" />
        </mxCell>
        <mxCell id="FE4h6nMI_-IRny2-kvsw-2" value="" style="verticalLabelPosition=bottom;verticalAlign=top;html=1;shape=mxgraph.basic.4_point_star_2;dx=0.8;fillColor=#f8cecc;strokeColor=#b85450;rotation=-25;" parent="1" vertex="1">
          <mxGeometry x="268" y="-695" width="20.828025477707005" height="18.181818181818183" as="geometry" />
        </mxCell>
        <mxCell id="FE4h6nMI_-IRny2-kvsw-3" value="" style="verticalLabelPosition=bottom;verticalAlign=top;html=1;shape=mxgraph.basic.4_point_star_2;dx=0.8;fillColor=#f8cecc;strokeColor=#b85450;rotation=-25;" parent="1" vertex="1">
          <mxGeometry x="305" y="-712" width="20.828025477707005" height="18.181818181818183" as="geometry" />
        </mxCell>
        <mxCell id="FE4h6nMI_-IRny2-kvsw-4" value="" style="verticalLabelPosition=bottom;verticalAlign=top;html=1;shape=mxgraph.basic.4_point_star_2;dx=0.8;fillColor=#f8cecc;strokeColor=#b85450;rotation=-25;" parent="1" vertex="1">
          <mxGeometry x="343" y="-730" width="20.828025477707005" height="18.181818181818183" as="geometry" />
        </mxCell>
        <mxCell id="FE4h6nMI_-IRny2-kvsw-5" value="" style="verticalLabelPosition=bottom;verticalAlign=top;html=1;shape=mxgraph.basic.4_point_star_2;dx=0.8;fillColor=#f8cecc;strokeColor=#b85450;rotation=-25;" parent="1" vertex="1">
          <mxGeometry x="381" y="-748" width="20.828025477707005" height="18.181818181818183" as="geometry" />
        </mxCell>
        <mxCell id="FE4h6nMI_-IRny2-kvsw-6" value="" style="verticalLabelPosition=bottom;verticalAlign=top;html=1;shape=mxgraph.basic.4_point_star_2;dx=0.8;fillColor=#f8cecc;strokeColor=#b85450;rotation=-25;" parent="1" vertex="1">
          <mxGeometry x="419" y="-765" width="20.828025477707005" height="18.181818181818183" as="geometry" />
        </mxCell>
        <mxCell id="FE4h6nMI_-IRny2-kvsw-7" value="" style="verticalLabelPosition=bottom;verticalAlign=top;html=1;shape=mxgraph.basic.4_point_star_2;dx=0.8;fillColor=#f8cecc;strokeColor=#b85450;rotation=-25;" parent="1" vertex="1">
          <mxGeometry x="456" y="-783" width="20.828025477707005" height="18.181818181818183" as="geometry" />
        </mxCell>
        <mxCell id="FE4h6nMI_-IRny2-kvsw-8" value="" style="verticalLabelPosition=bottom;verticalAlign=top;html=1;shape=mxgraph.basic.4_point_star_2;dx=0.8;fillColor=#f8cecc;strokeColor=#b85450;rotation=-25;" parent="1" vertex="1">
          <mxGeometry x="488" y="-797" width="20.828025477707005" height="18.181818181818183" as="geometry" />
        </mxCell>
        <mxCell id="FE4h6nMI_-IRny2-kvsw-9" value="" style="verticalLabelPosition=bottom;verticalAlign=top;html=1;shape=mxgraph.basic.4_point_star_2;dx=0.8;fillColor=#f8cecc;strokeColor=#b85450;rotation=-25;" parent="1" vertex="1">
          <mxGeometry x="526" y="-815" width="20.828025477707005" height="18.181818181818183" as="geometry" />
        </mxCell>
        <mxCell id="FE4h6nMI_-IRny2-kvsw-10" value="" style="verticalLabelPosition=bottom;verticalAlign=top;html=1;shape=mxgraph.basic.4_point_star_2;dx=0.8;fillColor=#f8cecc;strokeColor=#b85450;rotation=-25;" parent="1" vertex="1">
          <mxGeometry x="563" y="-833" width="20.828025477707005" height="18.181818181818183" as="geometry" />
        </mxCell>
        <mxCell id="FE4h6nMI_-IRny2-kvsw-11" value="" style="verticalLabelPosition=bottom;verticalAlign=top;html=1;shape=mxgraph.basic.4_point_star_2;dx=0.8;fillColor=#f8cecc;strokeColor=#b85450;rotation=-25;" parent="1" vertex="1">
          <mxGeometry x="595" y="-847" width="20.828025477707005" height="18.181818181818183" as="geometry" />
        </mxCell>
        <mxCell id="FE4h6nMI_-IRny2-kvsw-12" value="" style="verticalLabelPosition=bottom;verticalAlign=top;html=1;shape=mxgraph.basic.4_point_star_2;dx=0.8;fillColor=#f8cecc;strokeColor=#b85450;rotation=-25;" parent="1" vertex="1">
          <mxGeometry x="633" y="-865" width="20.828025477707005" height="18.181818181818183" as="geometry" />
        </mxCell>
        <mxCell id="FE4h6nMI_-IRny2-kvsw-13" value="" style="verticalLabelPosition=bottom;verticalAlign=top;html=1;shape=mxgraph.basic.8_point_star;fillColor=#e1d5e7;strokeColor=#9673a6;rotation=-25;" parent="1" vertex="1">
          <mxGeometry x="399" y="-761" width="27.770700636942674" height="24.242424242424242" as="geometry" />
        </mxCell>
        <mxCell id="FE4h6nMI_-IRny2-kvsw-14" value="" style="shape=crossbar;whiteSpace=wrap;html=1;rounded=1;strokeWidth=3;rotation=-25;" parent="1" vertex="1">
          <mxGeometry x="217" y="-814" width="444.3312101910828" height="12.121212121212121" as="geometry" />
        </mxCell>
        <mxCell id="FE4h6nMI_-IRny2-kvsw-15" value="" style="verticalLabelPosition=bottom;verticalAlign=top;html=1;shape=mxgraph.basic.4_point_star_2;dx=0.8;fillColor=#f8cecc;strokeColor=#b85450;rotation=-25;" parent="1" vertex="1">
          <mxGeometry x="250" y="-733" width="20.828025477707005" height="18.181818181818183" as="geometry" />
        </mxCell>
        <mxCell id="FE4h6nMI_-IRny2-kvsw-16" value="" style="verticalLabelPosition=bottom;verticalAlign=top;html=1;shape=mxgraph.basic.4_point_star_2;dx=0.8;fillColor=#f8cecc;strokeColor=#b85450;rotation=-25;" parent="1" vertex="1">
          <mxGeometry x="287" y="-751" width="20.828025477707005" height="18.181818181818183" as="geometry" />
        </mxCell>
        <mxCell id="FE4h6nMI_-IRny2-kvsw-17" value="" style="verticalLabelPosition=bottom;verticalAlign=top;html=1;shape=mxgraph.basic.4_point_star_2;dx=0.8;fillColor=#f8cecc;strokeColor=#b85450;rotation=-25;" parent="1" vertex="1">
          <mxGeometry x="325" y="-768" width="20.828025477707005" height="18.181818181818183" as="geometry" />
        </mxCell>
        <mxCell id="FE4h6nMI_-IRny2-kvsw-18" value="" style="verticalLabelPosition=bottom;verticalAlign=top;html=1;shape=mxgraph.basic.4_point_star_2;dx=0.8;fillColor=#f8cecc;strokeColor=#b85450;rotation=-25;" parent="1" vertex="1">
          <mxGeometry x="363" y="-786" width="20.828025477707005" height="18.181818181818183" as="geometry" />
        </mxCell>
        <mxCell id="FE4h6nMI_-IRny2-kvsw-19" value="" style="verticalLabelPosition=bottom;verticalAlign=top;html=1;shape=mxgraph.basic.4_point_star_2;dx=0.8;fillColor=#f8cecc;strokeColor=#b85450;rotation=-25;" parent="1" vertex="1">
          <mxGeometry x="401" y="-804" width="20.828025477707005" height="18.181818181818183" as="geometry" />
        </mxCell>
        <mxCell id="FE4h6nMI_-IRny2-kvsw-20" value="" style="verticalLabelPosition=bottom;verticalAlign=top;html=1;shape=mxgraph.basic.4_point_star_2;dx=0.8;fillColor=#f8cecc;strokeColor=#b85450;rotation=-25;" parent="1" vertex="1">
          <mxGeometry x="438" y="-821" width="20.828025477707005" height="18.181818181818183" as="geometry" />
        </mxCell>
        <mxCell id="FE4h6nMI_-IRny2-kvsw-21" value="" style="verticalLabelPosition=bottom;verticalAlign=top;html=1;shape=mxgraph.basic.4_point_star_2;dx=0.8;fillColor=#f8cecc;strokeColor=#b85450;rotation=-25;" parent="1" vertex="1">
          <mxGeometry x="470" y="-836" width="20.828025477707005" height="18.181818181818183" as="geometry" />
        </mxCell>
        <mxCell id="FE4h6nMI_-IRny2-kvsw-22" value="" style="verticalLabelPosition=bottom;verticalAlign=top;html=1;shape=mxgraph.basic.4_point_star_2;dx=0.8;fillColor=#f8cecc;strokeColor=#b85450;rotation=-25;" parent="1" vertex="1">
          <mxGeometry x="508" y="-854" width="20.828025477707005" height="18.181818181818183" as="geometry" />
        </mxCell>
        <mxCell id="FE4h6nMI_-IRny2-kvsw-23" value="" style="verticalLabelPosition=bottom;verticalAlign=top;html=1;shape=mxgraph.basic.4_point_star_2;dx=0.8;fillColor=#f8cecc;strokeColor=#b85450;rotation=-25;" parent="1" vertex="1">
          <mxGeometry x="545" y="-871" width="20.828025477707005" height="18.181818181818183" as="geometry" />
        </mxCell>
        <mxCell id="FE4h6nMI_-IRny2-kvsw-24" value="" style="verticalLabelPosition=bottom;verticalAlign=top;html=1;shape=mxgraph.basic.4_point_star_2;dx=0.8;fillColor=#f8cecc;strokeColor=#b85450;rotation=-25;" parent="1" vertex="1">
          <mxGeometry x="577" y="-886" width="20.828025477707005" height="18.181818181818183" as="geometry" />
        </mxCell>
        <mxCell id="FE4h6nMI_-IRny2-kvsw-25" value="" style="verticalLabelPosition=bottom;verticalAlign=top;html=1;shape=mxgraph.basic.4_point_star_2;dx=0.8;fillColor=#f8cecc;strokeColor=#b85450;rotation=-25;" parent="1" vertex="1">
          <mxGeometry x="615" y="-903" width="20.828025477707005" height="18.181818181818183" as="geometry" />
        </mxCell>
        <mxCell id="FE4h6nMI_-IRny2-kvsw-26" value="" style="shape=crossbar;whiteSpace=wrap;html=1;rounded=1;strokeWidth=3;rotation=-25;" parent="1" vertex="1">
          <mxGeometry x="260" y="-887" width="444.3312101910828" height="12.121212121212121" as="geometry" />
        </mxCell>
        <mxCell id="FE4h6nMI_-IRny2-kvsw-27" value="" style="verticalLabelPosition=bottom;verticalAlign=top;html=1;shape=mxgraph.basic.4_point_star_2;dx=0.8;fillColor=#f8cecc;strokeColor=#b85450;rotation=-25;" parent="1" vertex="1">
          <mxGeometry x="292" y="-806" width="20.828025477707005" height="18.181818181818183" as="geometry" />
        </mxCell>
        <mxCell id="FE4h6nMI_-IRny2-kvsw-28" value="" style="verticalLabelPosition=bottom;verticalAlign=top;html=1;shape=mxgraph.basic.4_point_star_2;dx=0.8;fillColor=#f8cecc;strokeColor=#b85450;rotation=-25;" parent="1" vertex="1">
          <mxGeometry x="330" y="-824" width="20.828025477707005" height="18.181818181818183" as="geometry" />
        </mxCell>
        <mxCell id="FE4h6nMI_-IRny2-kvsw-29" value="" style="verticalLabelPosition=bottom;verticalAlign=top;html=1;shape=mxgraph.basic.4_point_star_2;dx=0.8;fillColor=#f8cecc;strokeColor=#b85450;rotation=-25;" parent="1" vertex="1">
          <mxGeometry x="368" y="-842" width="20.828025477707005" height="18.181818181818183" as="geometry" />
        </mxCell>
        <mxCell id="FE4h6nMI_-IRny2-kvsw-30" value="" style="verticalLabelPosition=bottom;verticalAlign=top;html=1;shape=mxgraph.basic.4_point_star_2;dx=0.8;fillColor=#f8cecc;strokeColor=#b85450;rotation=-25;" parent="1" vertex="1">
          <mxGeometry x="405" y="-859" width="20.828025477707005" height="18.181818181818183" as="geometry" />
        </mxCell>
        <mxCell id="FE4h6nMI_-IRny2-kvsw-31" value="" style="verticalLabelPosition=bottom;verticalAlign=top;html=1;shape=mxgraph.basic.4_point_star_2;dx=0.8;fillColor=#f8cecc;strokeColor=#b85450;rotation=-25;" parent="1" vertex="1">
          <mxGeometry x="443" y="-877" width="20.828025477707005" height="18.181818181818183" as="geometry" />
        </mxCell>
        <mxCell id="FE4h6nMI_-IRny2-kvsw-32" value="" style="verticalLabelPosition=bottom;verticalAlign=top;html=1;shape=mxgraph.basic.4_point_star_2;dx=0.8;fillColor=#f8cecc;strokeColor=#b85450;rotation=-25;" parent="1" vertex="1">
          <mxGeometry x="481" y="-895" width="20.828025477707005" height="18.181818181818183" as="geometry" />
        </mxCell>
        <mxCell id="FE4h6nMI_-IRny2-kvsw-33" value="" style="verticalLabelPosition=bottom;verticalAlign=top;html=1;shape=mxgraph.basic.4_point_star_2;dx=0.8;fillColor=#f8cecc;strokeColor=#b85450;rotation=-25;" parent="1" vertex="1">
          <mxGeometry x="512" y="-909" width="20.828025477707005" height="18.181818181818183" as="geometry" />
        </mxCell>
        <mxCell id="FE4h6nMI_-IRny2-kvsw-34" value="" style="verticalLabelPosition=bottom;verticalAlign=top;html=1;shape=mxgraph.basic.4_point_star_2;dx=0.8;fillColor=#f8cecc;strokeColor=#b85450;rotation=-25;" parent="1" vertex="1">
          <mxGeometry x="550" y="-927" width="20.828025477707005" height="18.181818181818183" as="geometry" />
        </mxCell>
        <mxCell id="FE4h6nMI_-IRny2-kvsw-35" value="" style="verticalLabelPosition=bottom;verticalAlign=top;html=1;shape=mxgraph.basic.4_point_star_2;dx=0.8;fillColor=#f8cecc;strokeColor=#b85450;rotation=-25;" parent="1" vertex="1">
          <mxGeometry x="588" y="-944" width="20.828025477707005" height="18.181818181818183" as="geometry" />
        </mxCell>
        <mxCell id="FE4h6nMI_-IRny2-kvsw-36" value="" style="verticalLabelPosition=bottom;verticalAlign=top;html=1;shape=mxgraph.basic.4_point_star_2;dx=0.8;fillColor=#f8cecc;strokeColor=#b85450;rotation=-25;" parent="1" vertex="1">
          <mxGeometry x="619" y="-959" width="20.828025477707005" height="18.181818181818183" as="geometry" />
        </mxCell>
        <mxCell id="FE4h6nMI_-IRny2-kvsw-37" value="" style="verticalLabelPosition=bottom;verticalAlign=top;html=1;shape=mxgraph.basic.4_point_star_2;dx=0.8;fillColor=#f8cecc;strokeColor=#b85450;rotation=-25;" parent="1" vertex="1">
          <mxGeometry x="657" y="-977" width="20.828025477707005" height="18.181818181818183" as="geometry" />
        </mxCell>
        <mxCell id="FE4h6nMI_-IRny2-kvsw-38" value="" style="verticalLabelPosition=bottom;verticalAlign=top;html=1;shape=mxgraph.basic.8_point_star;fillColor=#e1d5e7;strokeColor=#9673a6;rotation=-25;" parent="1" vertex="1">
          <mxGeometry x="424" y="-873" width="27.770700636942674" height="24.242424242424242" as="geometry" />
        </mxCell>
        <mxCell id="FE4h6nMI_-IRny2-kvsw-39" value="" style="shape=crossbar;whiteSpace=wrap;html=1;rounded=1;strokeWidth=3;rotation=-25;" parent="1" vertex="1">
          <mxGeometry x="151" y="-883" width="444.3312101910828" height="12.121212121212121" as="geometry" />
        </mxCell>
        <mxCell id="FE4h6nMI_-IRny2-kvsw-40" value="" style="verticalLabelPosition=bottom;verticalAlign=top;html=1;shape=mxgraph.basic.4_point_star_2;dx=0.8;fillColor=#f8cecc;strokeColor=#b85450;rotation=-25;" parent="1" vertex="1">
          <mxGeometry x="183" y="-802" width="20.828025477707005" height="18.181818181818183" as="geometry" />
        </mxCell>
        <mxCell id="FE4h6nMI_-IRny2-kvsw-41" value="" style="verticalLabelPosition=bottom;verticalAlign=top;html=1;shape=mxgraph.basic.4_point_star_2;dx=0.8;fillColor=#f8cecc;strokeColor=#b85450;rotation=-25;" parent="1" vertex="1">
          <mxGeometry x="221" y="-820" width="20.828025477707005" height="18.181818181818183" as="geometry" />
        </mxCell>
        <mxCell id="FE4h6nMI_-IRny2-kvsw-42" value="" style="verticalLabelPosition=bottom;verticalAlign=top;html=1;shape=mxgraph.basic.4_point_star_2;dx=0.8;fillColor=#f8cecc;strokeColor=#b85450;rotation=-25;" parent="1" vertex="1">
          <mxGeometry x="258" y="-838" width="20.828025477707005" height="18.181818181818183" as="geometry" />
        </mxCell>
        <mxCell id="FE4h6nMI_-IRny2-kvsw-43" value="" style="verticalLabelPosition=bottom;verticalAlign=top;html=1;shape=mxgraph.basic.4_point_star_2;dx=0.8;fillColor=#f8cecc;strokeColor=#b85450;rotation=-25;" parent="1" vertex="1">
          <mxGeometry x="296" y="-855" width="20.828025477707005" height="18.181818181818183" as="geometry" />
        </mxCell>
        <mxCell id="FE4h6nMI_-IRny2-kvsw-44" value="" style="verticalLabelPosition=bottom;verticalAlign=top;html=1;shape=mxgraph.basic.4_point_star_2;dx=0.8;fillColor=#f8cecc;strokeColor=#b85450;rotation=-25;" parent="1" vertex="1">
          <mxGeometry x="334" y="-873" width="20.828025477707005" height="18.181818181818183" as="geometry" />
        </mxCell>
        <mxCell id="FE4h6nMI_-IRny2-kvsw-45" value="" style="verticalLabelPosition=bottom;verticalAlign=top;html=1;shape=mxgraph.basic.4_point_star_2;dx=0.8;fillColor=#f8cecc;strokeColor=#b85450;rotation=-25;" parent="1" vertex="1">
          <mxGeometry x="372" y="-890" width="20.828025477707005" height="18.181818181818183" as="geometry" />
        </mxCell>
        <mxCell id="FE4h6nMI_-IRny2-kvsw-46" value="" style="verticalLabelPosition=bottom;verticalAlign=top;html=1;shape=mxgraph.basic.4_point_star_2;dx=0.8;fillColor=#f8cecc;strokeColor=#b85450;rotation=-25;" parent="1" vertex="1">
          <mxGeometry x="403" y="-905" width="20.828025477707005" height="18.181818181818183" as="geometry" />
        </mxCell>
        <mxCell id="FE4h6nMI_-IRny2-kvsw-47" value="" style="verticalLabelPosition=bottom;verticalAlign=top;html=1;shape=mxgraph.basic.4_point_star_2;dx=0.8;fillColor=#f8cecc;strokeColor=#b85450;rotation=-25;" parent="1" vertex="1">
          <mxGeometry x="441" y="-923" width="20.828025477707005" height="18.181818181818183" as="geometry" />
        </mxCell>
        <mxCell id="FE4h6nMI_-IRny2-kvsw-48" value="" style="verticalLabelPosition=bottom;verticalAlign=top;html=1;shape=mxgraph.basic.4_point_star_2;dx=0.8;fillColor=#f8cecc;strokeColor=#b85450;rotation=-25;" parent="1" vertex="1">
          <mxGeometry x="479" y="-940" width="20.828025477707005" height="18.181818181818183" as="geometry" />
        </mxCell>
        <mxCell id="FE4h6nMI_-IRny2-kvsw-49" value="" style="verticalLabelPosition=bottom;verticalAlign=top;html=1;shape=mxgraph.basic.4_point_star_2;dx=0.8;fillColor=#f8cecc;strokeColor=#b85450;rotation=-25;" parent="1" vertex="1">
          <mxGeometry x="510" y="-955" width="20.828025477707005" height="18.181818181818183" as="geometry" />
        </mxCell>
        <mxCell id="FE4h6nMI_-IRny2-kvsw-50" value="" style="verticalLabelPosition=bottom;verticalAlign=top;html=1;shape=mxgraph.basic.4_point_star_2;dx=0.8;fillColor=#f8cecc;strokeColor=#b85450;rotation=-25;" parent="1" vertex="1">
          <mxGeometry x="548" y="-973" width="20.828025477707005" height="18.181818181818183" as="geometry" />
        </mxCell>
        <mxCell id="FE4h6nMI_-IRny2-kvsw-51" value="" style="verticalLabelPosition=bottom;verticalAlign=top;html=1;shape=mxgraph.basic.donut;dx=25;fillColor=#fff2cc;strokeColor=#d6b656;rotation=-25;" parent="1" vertex="1">
          <mxGeometry x="535" y="-915" width="13.885350318471337" height="12.121212121212121" as="geometry" />
        </mxCell>
        <mxCell id="FE4h6nMI_-IRny2-kvsw-52" value="" style="shape=crossbar;whiteSpace=wrap;html=1;rounded=1;strokeWidth=3;rotation=-25;" parent="1" vertex="1">
          <mxGeometry x="219" y="-965" width="444.3312101910828" height="12.121212121212121" as="geometry" />
        </mxCell>
        <mxCell id="FE4h6nMI_-IRny2-kvsw-53" value="" style="verticalLabelPosition=bottom;verticalAlign=top;html=1;shape=mxgraph.basic.4_point_star_2;dx=0.8;fillColor=#f8cecc;strokeColor=#b85450;rotation=-25;" parent="1" vertex="1">
          <mxGeometry x="252" y="-885" width="20.828025477707005" height="18.181818181818183" as="geometry" />
        </mxCell>
        <mxCell id="FE4h6nMI_-IRny2-kvsw-54" value="" style="verticalLabelPosition=bottom;verticalAlign=top;html=1;shape=mxgraph.basic.4_point_star_2;dx=0.8;fillColor=#f8cecc;strokeColor=#b85450;rotation=-25;" parent="1" vertex="1">
          <mxGeometry x="290" y="-902" width="20.828025477707005" height="18.181818181818183" as="geometry" />
        </mxCell>
        <mxCell id="FE4h6nMI_-IRny2-kvsw-55" value="" style="verticalLabelPosition=bottom;verticalAlign=top;html=1;shape=mxgraph.basic.4_point_star_2;dx=0.8;fillColor=#f8cecc;strokeColor=#b85450;rotation=-25;" parent="1" vertex="1">
          <mxGeometry x="327" y="-920" width="20.828025477707005" height="18.181818181818183" as="geometry" />
        </mxCell>
        <mxCell id="FE4h6nMI_-IRny2-kvsw-56" value="" style="verticalLabelPosition=bottom;verticalAlign=top;html=1;shape=mxgraph.basic.4_point_star_2;dx=0.8;fillColor=#f8cecc;strokeColor=#b85450;rotation=-25;" parent="1" vertex="1">
          <mxGeometry x="365" y="-937" width="20.828025477707005" height="18.181818181818183" as="geometry" />
        </mxCell>
        <mxCell id="FE4h6nMI_-IRny2-kvsw-57" value="" style="verticalLabelPosition=bottom;verticalAlign=top;html=1;shape=mxgraph.basic.4_point_star_2;dx=0.8;fillColor=#f8cecc;strokeColor=#b85450;rotation=-25;" parent="1" vertex="1">
          <mxGeometry x="403" y="-955" width="20.828025477707005" height="18.181818181818183" as="geometry" />
        </mxCell>
        <mxCell id="FE4h6nMI_-IRny2-kvsw-58" value="" style="verticalLabelPosition=bottom;verticalAlign=top;html=1;shape=mxgraph.basic.4_point_star_2;dx=0.8;fillColor=#f8cecc;strokeColor=#b85450;rotation=-25;" parent="1" vertex="1">
          <mxGeometry x="441" y="-973" width="20.828025477707005" height="18.181818181818183" as="geometry" />
        </mxCell>
        <mxCell id="FE4h6nMI_-IRny2-kvsw-59" value="" style="verticalLabelPosition=bottom;verticalAlign=top;html=1;shape=mxgraph.basic.4_point_star_2;dx=0.8;fillColor=#f8cecc;strokeColor=#b85450;rotation=-25;" parent="1" vertex="1">
          <mxGeometry x="472" y="-987" width="20.828025477707005" height="18.181818181818183" as="geometry" />
        </mxCell>
        <mxCell id="FE4h6nMI_-IRny2-kvsw-60" value="" style="verticalLabelPosition=bottom;verticalAlign=top;html=1;shape=mxgraph.basic.4_point_star_2;dx=0.8;fillColor=#f8cecc;strokeColor=#b85450;rotation=-25;" parent="1" vertex="1">
          <mxGeometry x="510" y="-1005" width="20.828025477707005" height="18.181818181818183" as="geometry" />
        </mxCell>
        <mxCell id="FE4h6nMI_-IRny2-kvsw-61" value="" style="verticalLabelPosition=bottom;verticalAlign=top;html=1;shape=mxgraph.basic.4_point_star_2;dx=0.8;fillColor=#f8cecc;strokeColor=#b85450;rotation=-25;" parent="1" vertex="1">
          <mxGeometry x="548" y="-1023" width="20.828025477707005" height="18.181818181818183" as="geometry" />
        </mxCell>
        <mxCell id="FE4h6nMI_-IRny2-kvsw-62" value="" style="verticalLabelPosition=bottom;verticalAlign=top;html=1;shape=mxgraph.basic.4_point_star_2;dx=0.8;fillColor=#f8cecc;strokeColor=#b85450;rotation=-25;" parent="1" vertex="1">
          <mxGeometry x="579" y="-1037" width="20.828025477707005" height="18.181818181818183" as="geometry" />
        </mxCell>
        <mxCell id="FE4h6nMI_-IRny2-kvsw-63" value="" style="verticalLabelPosition=bottom;verticalAlign=top;html=1;shape=mxgraph.basic.4_point_star_2;dx=0.8;fillColor=#f8cecc;strokeColor=#b85450;rotation=-25;" parent="1" vertex="1">
          <mxGeometry x="617" y="-1055" width="20.828025477707005" height="18.181818181818183" as="geometry" />
        </mxCell>
        <mxCell id="Tk5JDoCF1C5ECLQBPAMv-2" value="" style="shape=switch;whiteSpace=wrap;html=1;fillColor=#b0e3e6;strokeColor=#0e8088;" vertex="1" parent="1">
          <mxGeometry x="348.000698141557" y="-835.8157449719944" width="24" height="24.19" as="geometry" />
        </mxCell>
        <mxCell id="U8KrMnp4iSW1WvnMSb0Y-1" value="&lt;font style=&quot;font-size: 29px&quot;&gt;Unburned Area&lt;/font&gt;" style="text;html=1;align=center;verticalAlign=middle;resizable=0;points=[];autosize=1;strokeWidth=1;" vertex="1" parent="1">
          <mxGeometry x="388.83000000000004" y="-545" width="207" height="23" as="geometry" />
        </mxCell>
        <mxCell id="U8KrMnp4iSW1WvnMSb0Y-2" value="&lt;font style=&quot;font-size: 28px&quot;&gt;Transition Area&lt;/font&gt;" style="text;html=1;align=center;verticalAlign=middle;resizable=0;points=[];autosize=1;" vertex="1" parent="1">
          <mxGeometry x="1024" y="-1063" width="200" height="23" as="geometry" />
        </mxCell>
      </root>
    </mxGraphModel>
  </diagram>
  <diagram id="oReBMB4SCxNkka226rkY" name="Page-2">
    <mxGraphModel dx="1108" dy="649" grid="0" gridSize="10" guides="1" tooltips="1" connect="1" arrows="1" fold="1" page="1" pageScale="1" pageWidth="850" pageHeight="1100" math="0" shadow="0">
      <root>
        <mxCell id="ajN9KvpiuAAPFwgA_kl2-0" />
        <mxCell id="ajN9KvpiuAAPFwgA_kl2-1" parent="ajN9KvpiuAAPFwgA_kl2-0" />
        <mxCell id="scF5gSLuFwIkuzY11RMS-14" value="" style="shape=crossbar;whiteSpace=wrap;html=1;rounded=1;strokeWidth=3;" parent="ajN9KvpiuAAPFwgA_kl2-1" vertex="1">
          <mxGeometry x="140" y="370" width="640" height="20" as="geometry" />
        </mxCell>
        <mxCell id="scF5gSLuFwIkuzY11RMS-28" style="edgeStyle=orthogonalEdgeStyle;rounded=0;orthogonalLoop=1;jettySize=auto;html=1;exitX=0.6;exitY=0.6;exitDx=0;exitDy=0;exitPerimeter=0;" parent="ajN9KvpiuAAPFwgA_kl2-1" source="scF5gSLuFwIkuzY11RMS-15" edge="1">
          <mxGeometry relative="1" as="geometry">
            <mxPoint x="178" y="470" as="targetPoint" />
          </mxGeometry>
        </mxCell>
        <mxCell id="scF5gSLuFwIkuzY11RMS-15" value="" style="verticalLabelPosition=bottom;verticalAlign=top;html=1;shape=mxgraph.basic.4_point_star_2;dx=0.8;fillColor=#d5e8d4;strokeColor=#82b366;" parent="ajN9KvpiuAAPFwgA_kl2-1" vertex="1">
          <mxGeometry x="160" y="365" width="30" height="30" as="geometry" />
        </mxCell>
        <mxCell id="scF5gSLuFwIkuzY11RMS-29" style="edgeStyle=orthogonalEdgeStyle;rounded=0;orthogonalLoop=1;jettySize=auto;html=1;exitX=0.4;exitY=0.6;exitDx=0;exitDy=0;exitPerimeter=0;" parent="ajN9KvpiuAAPFwgA_kl2-1" source="scF5gSLuFwIkuzY11RMS-16" edge="1">
          <mxGeometry relative="1" as="geometry">
            <mxPoint x="200" y="470" as="targetPoint" />
            <Array as="points">
              <mxPoint x="232" y="410" />
              <mxPoint x="200" y="410" />
            </Array>
          </mxGeometry>
        </mxCell>
        <mxCell id="scF5gSLuFwIkuzY11RMS-16" value="" style="verticalLabelPosition=bottom;verticalAlign=top;html=1;shape=mxgraph.basic.4_point_star_2;dx=0.8;fillColor=#d5e8d4;strokeColor=#82b366;" parent="ajN9KvpiuAAPFwgA_kl2-1" vertex="1">
          <mxGeometry x="220" y="365" width="30" height="30" as="geometry" />
        </mxCell>
        <mxCell id="scF5gSLuFwIkuzY11RMS-30" style="edgeStyle=orthogonalEdgeStyle;rounded=0;orthogonalLoop=1;jettySize=auto;html=1;exitX=0.4;exitY=0.6;exitDx=0;exitDy=0;exitPerimeter=0;" parent="ajN9KvpiuAAPFwgA_kl2-1" source="scF5gSLuFwIkuzY11RMS-17" edge="1">
          <mxGeometry relative="1" as="geometry">
            <mxPoint x="220" y="470" as="targetPoint" />
            <Array as="points">
              <mxPoint x="292" y="430" />
              <mxPoint x="220" y="430" />
              <mxPoint x="220" y="470" />
            </Array>
          </mxGeometry>
        </mxCell>
        <mxCell id="scF5gSLuFwIkuzY11RMS-17" value="" style="verticalLabelPosition=bottom;verticalAlign=top;html=1;shape=mxgraph.basic.4_point_star_2;dx=0.8;fillColor=#d5e8d4;strokeColor=#82b366;" parent="ajN9KvpiuAAPFwgA_kl2-1" vertex="1">
          <mxGeometry x="280" y="365" width="30" height="30" as="geometry" />
        </mxCell>
        <mxCell id="scF5gSLuFwIkuzY11RMS-18" value="" style="verticalLabelPosition=bottom;verticalAlign=top;html=1;shape=mxgraph.basic.4_point_star_2;dx=0.8;fillColor=#d5e8d4;strokeColor=#82b366;" parent="ajN9KvpiuAAPFwgA_kl2-1" vertex="1">
          <mxGeometry x="340" y="365" width="30" height="30" as="geometry" />
        </mxCell>
        <mxCell id="scF5gSLuFwIkuzY11RMS-19" value="" style="verticalLabelPosition=bottom;verticalAlign=top;html=1;shape=mxgraph.basic.4_point_star_2;dx=0.8;fillColor=#d5e8d4;strokeColor=#82b366;" parent="ajN9KvpiuAAPFwgA_kl2-1" vertex="1">
          <mxGeometry x="400" y="365" width="30" height="30" as="geometry" />
        </mxCell>
        <mxCell id="scF5gSLuFwIkuzY11RMS-20" value="" style="verticalLabelPosition=bottom;verticalAlign=top;html=1;shape=mxgraph.basic.4_point_star_2;dx=0.8;fillColor=#d5e8d4;strokeColor=#82b366;" parent="ajN9KvpiuAAPFwgA_kl2-1" vertex="1">
          <mxGeometry x="460" y="365" width="30" height="30" as="geometry" />
        </mxCell>
        <mxCell id="scF5gSLuFwIkuzY11RMS-21" value="" style="verticalLabelPosition=bottom;verticalAlign=top;html=1;shape=mxgraph.basic.4_point_star_2;dx=0.8;fillColor=#d5e8d4;strokeColor=#82b366;" parent="ajN9KvpiuAAPFwgA_kl2-1" vertex="1">
          <mxGeometry x="510" y="365" width="30" height="30" as="geometry" />
        </mxCell>
        <mxCell id="scF5gSLuFwIkuzY11RMS-22" value="" style="verticalLabelPosition=bottom;verticalAlign=top;html=1;shape=mxgraph.basic.4_point_star_2;dx=0.8;fillColor=#d5e8d4;strokeColor=#82b366;" parent="ajN9KvpiuAAPFwgA_kl2-1" vertex="1">
          <mxGeometry x="570" y="365" width="30" height="30" as="geometry" />
        </mxCell>
        <mxCell id="scF5gSLuFwIkuzY11RMS-23" value="" style="verticalLabelPosition=bottom;verticalAlign=top;html=1;shape=mxgraph.basic.4_point_star_2;dx=0.8;fillColor=#d5e8d4;strokeColor=#82b366;" parent="ajN9KvpiuAAPFwgA_kl2-1" vertex="1">
          <mxGeometry x="630" y="365" width="30" height="30" as="geometry" />
        </mxCell>
        <mxCell id="scF5gSLuFwIkuzY11RMS-24" value="" style="verticalLabelPosition=bottom;verticalAlign=top;html=1;shape=mxgraph.basic.4_point_star_2;dx=0.8;fillColor=#d5e8d4;strokeColor=#82b366;" parent="ajN9KvpiuAAPFwgA_kl2-1" vertex="1">
          <mxGeometry x="680" y="365" width="30" height="30" as="geometry" />
        </mxCell>
        <mxCell id="scF5gSLuFwIkuzY11RMS-25" value="" style="verticalLabelPosition=bottom;verticalAlign=top;html=1;shape=mxgraph.basic.4_point_star_2;dx=0.8;fillColor=#d5e8d4;strokeColor=#82b366;" parent="ajN9KvpiuAAPFwgA_kl2-1" vertex="1">
          <mxGeometry x="740" y="365" width="30" height="30" as="geometry" />
        </mxCell>
        <mxCell id="SJIJbwP_Bw7cy2zv3Axa-0" style="edgeStyle=orthogonalEdgeStyle;rounded=0;orthogonalLoop=1;jettySize=auto;html=1;entryX=0.5;entryY=0;entryDx=0;entryDy=0;" parent="ajN9KvpiuAAPFwgA_kl2-1" target="scF5gSLuFwIkuzY11RMS-36" edge="1">
          <mxGeometry relative="1" as="geometry">
            <mxPoint x="270" y="460" as="targetPoint" />
            <Array as="points">
              <mxPoint x="330" y="434" />
              <mxPoint x="330" y="460" />
              <mxPoint x="270" y="460" />
            </Array>
            <mxPoint x="358" y="434" as="sourcePoint" />
          </mxGeometry>
        </mxCell>
        <mxCell id="SJIJbwP_Bw7cy2zv3Axa-2" style="edgeStyle=orthogonalEdgeStyle;rounded=0;orthogonalLoop=1;jettySize=auto;html=1;exitX=0.29;exitY=1;exitDx=0;exitDy=0;exitPerimeter=0;" parent="ajN9KvpiuAAPFwgA_kl2-1" source="scF5gSLuFwIkuzY11RMS-26" target="scF5gSLuFwIkuzY11RMS-40" edge="1">
          <mxGeometry relative="1" as="geometry">
            <Array as="points">
              <mxPoint x="382" y="435" />
              <mxPoint x="357" y="435" />
            </Array>
          </mxGeometry>
        </mxCell>
        <mxCell id="scF5gSLuFwIkuzY11RMS-26" value="" style="verticalLabelPosition=bottom;verticalAlign=top;html=1;shape=mxgraph.basic.8_point_star;fillColor=#e1d5e7;strokeColor=#9673a6;" parent="ajN9KvpiuAAPFwgA_kl2-1" vertex="1">
          <mxGeometry x="370" y="360" width="40" height="40" as="geometry" />
        </mxCell>
        <mxCell id="SJIJbwP_Bw7cy2zv3Axa-18" style="edgeStyle=orthogonalEdgeStyle;rounded=0;orthogonalLoop=1;jettySize=auto;html=1;entryX=0.417;entryY=0;entryDx=0;entryDy=0;entryPerimeter=0;" parent="ajN9KvpiuAAPFwgA_kl2-1" source="scF5gSLuFwIkuzY11RMS-27" target="SJIJbwP_Bw7cy2zv3Axa-17" edge="1">
          <mxGeometry relative="1" as="geometry" />
        </mxCell>
        <mxCell id="scF5gSLuFwIkuzY11RMS-27" value="" style="verticalLabelPosition=bottom;verticalAlign=top;html=1;shape=mxgraph.basic.donut;dx=25;fillColor=#fff2cc;strokeColor=#d6b656;" parent="ajN9KvpiuAAPFwgA_kl2-1" vertex="1">
          <mxGeometry x="545" y="370" width="20" height="20" as="geometry" />
        </mxCell>
        <mxCell id="60gjQMJCxsfnzDnvrRJC-2" style="edgeStyle=orthogonalEdgeStyle;rounded=0;orthogonalLoop=1;jettySize=auto;html=1;entryX=0.535;entryY=0.127;entryDx=0;entryDy=0;entryPerimeter=0;" edge="1" parent="ajN9KvpiuAAPFwgA_kl2-1" source="scF5gSLuFwIkuzY11RMS-31" target="SJIJbwP_Bw7cy2zv3Axa-19">
          <mxGeometry relative="1" as="geometry" />
        </mxCell>
        <mxCell id="scF5gSLuFwIkuzY11RMS-31" value="Veg and Biocrust data recorded" style="shape=document;whiteSpace=wrap;html=1;boundedLbl=1;fillColor=#d5e8d4;strokeColor=#82b366;" parent="ajN9KvpiuAAPFwgA_kl2-1" vertex="1">
          <mxGeometry x="100" y="470" width="120" height="80" as="geometry" />
        </mxCell>
        <mxCell id="scF5gSLuFwIkuzY11RMS-35" style="edgeStyle=orthogonalEdgeStyle;rounded=0;orthogonalLoop=1;jettySize=auto;html=1;exitX=0.5;exitY=1;exitDx=0;exitDy=0;" parent="ajN9KvpiuAAPFwgA_kl2-1" source="scF5gSLuFwIkuzY11RMS-34" edge="1">
          <mxGeometry relative="1" as="geometry">
            <mxPoint x="450" y="600" as="targetPoint" />
            <Array as="points">
              <mxPoint x="450" y="600" />
              <mxPoint x="450" y="600" />
            </Array>
          </mxGeometry>
        </mxCell>
        <mxCell id="scF5gSLuFwIkuzY11RMS-34" value="soil chem tests conducted in field" style="ellipse;whiteSpace=wrap;html=1;aspect=fixed;fillColor=#dae8fc;strokeColor=#6c8ebf;" parent="ajN9KvpiuAAPFwgA_kl2-1" vertex="1">
          <mxGeometry x="410" y="470" width="80" height="80" as="geometry" />
        </mxCell>
        <mxCell id="SJIJbwP_Bw7cy2zv3Axa-8" style="edgeStyle=orthogonalEdgeStyle;rounded=0;orthogonalLoop=1;jettySize=auto;html=1;exitX=0.5;exitY=1;exitDx=0;exitDy=0;entryX=0.5;entryY=0;entryDx=0;entryDy=0;" parent="ajN9KvpiuAAPFwgA_kl2-1" source="scF5gSLuFwIkuzY11RMS-36" target="SJIJbwP_Bw7cy2zv3Axa-5" edge="1">
          <mxGeometry relative="1" as="geometry" />
        </mxCell>
        <mxCell id="SJIJbwP_Bw7cy2zv3Axa-10" style="edgeStyle=orthogonalEdgeStyle;rounded=0;orthogonalLoop=1;jettySize=auto;html=1;exitX=0.5;exitY=1;exitDx=0;exitDy=0;entryX=0.5;entryY=0;entryDx=0;entryDy=0;" parent="ajN9KvpiuAAPFwgA_kl2-1" source="scF5gSLuFwIkuzY11RMS-36" target="SJIJbwP_Bw7cy2zv3Axa-4" edge="1">
          <mxGeometry relative="1" as="geometry">
            <Array as="points">
              <mxPoint x="220" y="550" />
            </Array>
          </mxGeometry>
        </mxCell>
        <mxCell id="scF5gSLuFwIkuzY11RMS-36" value="soil put in pots for bioassay" style="ellipse;whiteSpace=wrap;html=1;aspect=fixed;fillColor=#e1d5e7;strokeColor=#9673a6;" parent="ajN9KvpiuAAPFwgA_kl2-1" vertex="1">
          <mxGeometry x="230" y="470" width="80" height="80" as="geometry" />
        </mxCell>
        <mxCell id="60gjQMJCxsfnzDnvrRJC-4" style="edgeStyle=orthogonalEdgeStyle;rounded=0;orthogonalLoop=1;jettySize=auto;html=1;entryX=0.475;entryY=0.667;entryDx=0;entryDy=0;entryPerimeter=0;" edge="1" parent="ajN9KvpiuAAPFwgA_kl2-1" source="scF5gSLuFwIkuzY11RMS-38" target="SJIJbwP_Bw7cy2zv3Axa-19">
          <mxGeometry relative="1" as="geometry" />
        </mxCell>
        <mxCell id="scF5gSLuFwIkuzY11RMS-38" value="soil chem test results recorded" style="shape=document;whiteSpace=wrap;html=1;boundedLbl=1;fillColor=#dae8fc;strokeColor=#6c8ebf;" parent="ajN9KvpiuAAPFwgA_kl2-1" vertex="1">
          <mxGeometry x="390" y="600" width="120" height="80" as="geometry" />
        </mxCell>
        <mxCell id="SJIJbwP_Bw7cy2zv3Axa-15" style="edgeStyle=orthogonalEdgeStyle;rounded=0;orthogonalLoop=1;jettySize=auto;html=1;exitX=0.5;exitY=1;exitDx=0;exitDy=0;entryX=0.835;entryY=0;entryDx=0;entryDy=0;entryPerimeter=0;" parent="ajN9KvpiuAAPFwgA_kl2-1" source="scF5gSLuFwIkuzY11RMS-40" target="SJIJbwP_Bw7cy2zv3Axa-14" edge="1">
          <mxGeometry relative="1" as="geometry" />
        </mxCell>
        <mxCell id="scF5gSLuFwIkuzY11RMS-40" value="soil samples frozen for illumina seq." style="ellipse;whiteSpace=wrap;html=1;aspect=fixed;fillColor=#e1d5e7;strokeColor=#9673a6;" parent="ajN9KvpiuAAPFwgA_kl2-1" vertex="1">
          <mxGeometry x="317" y="470" width="80" height="80" as="geometry" />
        </mxCell>
        <mxCell id="SJIJbwP_Bw7cy2zv3Axa-3" style="edgeStyle=orthogonalEdgeStyle;rounded=0;orthogonalLoop=1;jettySize=auto;html=1;exitX=0.5;exitY=0.75;exitDx=0;exitDy=0;exitPerimeter=0;" parent="ajN9KvpiuAAPFwgA_kl2-1" source="scF5gSLuFwIkuzY11RMS-46" edge="1">
          <mxGeometry relative="1" as="geometry">
            <mxPoint x="445" y="470" as="targetPoint" />
          </mxGeometry>
        </mxCell>
        <mxCell id="scF5gSLuFwIkuzY11RMS-46" value="" style="shape=switch;whiteSpace=wrap;html=1;fillColor=#b0e3e6;strokeColor=#0e8088;" parent="ajN9KvpiuAAPFwgA_kl2-1" vertex="1">
          <mxGeometry x="430" y="365" width="30" height="30" as="geometry" />
        </mxCell>
        <mxCell id="vlmY5Js_HX6b_5jXQJqL-0" value="Part II: Transects" style="rounded=0;whiteSpace=wrap;html=1;" parent="ajN9KvpiuAAPFwgA_kl2-1" vertex="1">
          <mxGeometry x="50" y="192" width="120" height="60" as="geometry" />
        </mxCell>
        <mxCell id="vlmY5Js_HX6b_5jXQJqL-1" value="Part I: Maps and Pre-existing Datasets" style="whiteSpace=wrap;html=1;" parent="ajN9KvpiuAAPFwgA_kl2-1" vertex="1">
          <mxGeometry x="70" y="90" width="120" height="60" as="geometry" />
        </mxCell>
        <mxCell id="vlmY5Js_HX6b_5jXQJqL-2" value="Part III: &lt;br&gt;Regeneration Trial" style="whiteSpace=wrap;html=1;" parent="ajN9KvpiuAAPFwgA_kl2-1" vertex="1">
          <mxGeometry x="70" y="1120" width="120" height="60" as="geometry" />
        </mxCell>
        <mxCell id="vlmY5Js_HX6b_5jXQJqL-16" value="One site" style="shape=table;childLayout=tableLayout;rowLines=0;columnLines=0;startSize=40;html=1;whiteSpace=wrap;collapsible=0;recursiveResize=0;expand=0;pointerEvents=0;fontStyle=1;align=center;" parent="ajN9KvpiuAAPFwgA_kl2-1" vertex="1">
          <mxGeometry x="225" y="1110" width="400" height="277.75" as="geometry" />
        </mxCell>
        <mxCell id="vlmY5Js_HX6b_5jXQJqL-17" value="" style="swimlane;horizontal=0;points=[[0,0.5],[1,0.5]];portConstraint=eastwest;startSize=40;html=1;whiteSpace=wrap;collapsible=0;recursiveResize=0;expand=0;pointerEvents=0;fontStyle=1" parent="vlmY5Js_HX6b_5jXQJqL-16" vertex="1">
          <mxGeometry y="40" width="400" height="91" as="geometry" />
        </mxCell>
        <mxCell id="vlmY5Js_HX6b_5jXQJqL-18" value="Shade Addition" style="swimlane;connectable=0;startSize=40;html=1;whiteSpace=wrap;collapsible=0;recursiveResize=0;expand=0;pointerEvents=0;" parent="vlmY5Js_HX6b_5jXQJqL-17" vertex="1">
          <mxGeometry x="40" width="120" height="91" as="geometry" />
        </mxCell>
        <mxCell id="vlmY5Js_HX6b_5jXQJqL-19" value="Inoculum Addition" style="swimlane;connectable=0;startSize=40;html=1;whiteSpace=wrap;collapsible=0;recursiveResize=0;expand=0;pointerEvents=0;" parent="vlmY5Js_HX6b_5jXQJqL-17" vertex="1">
          <mxGeometry x="160" width="120" height="91" as="geometry" />
        </mxCell>
        <mxCell id="vlmY5Js_HX6b_5jXQJqL-20" value="&lt;div&gt;Grass&lt;/div&gt;&amp;nbsp;Removal" style="swimlane;connectable=0;startSize=40;html=1;whiteSpace=wrap;collapsible=0;recursiveResize=0;expand=0;pointerEvents=0;" parent="vlmY5Js_HX6b_5jXQJqL-17" vertex="1">
          <mxGeometry x="280" width="120" height="91" as="geometry" />
        </mxCell>
        <mxCell id="vlmY5Js_HX6b_5jXQJqL-21" value="Pinyon Seedlings" style="swimlane;horizontal=0;points=[[0,0.5],[1,0.5]];portConstraint=eastwest;startSize=40;html=1;whiteSpace=wrap;collapsible=0;recursiveResize=0;expand=0;pointerEvents=0;" parent="vlmY5Js_HX6b_5jXQJqL-16" vertex="1">
          <mxGeometry y="131" width="400" height="74" as="geometry" />
        </mxCell>
        <mxCell id="vlmY5Js_HX6b_5jXQJqL-22" value="" style="swimlane;connectable=0;startSize=0;html=1;whiteSpace=wrap;collapsible=0;recursiveResize=0;expand=0;pointerEvents=0;" parent="vlmY5Js_HX6b_5jXQJqL-21" vertex="1">
          <mxGeometry x="40" width="120" height="74" as="geometry" />
        </mxCell>
        <mxCell id="vlmY5Js_HX6b_5jXQJqL-23" value="" style="swimlane;connectable=0;startSize=0;html=1;whiteSpace=wrap;collapsible=0;recursiveResize=0;expand=0;pointerEvents=0;" parent="vlmY5Js_HX6b_5jXQJqL-21" vertex="1">
          <mxGeometry x="160" width="120" height="74" as="geometry" />
        </mxCell>
        <mxCell id="vlmY5Js_HX6b_5jXQJqL-24" value="" style="swimlane;connectable=0;startSize=0;html=1;whiteSpace=wrap;collapsible=0;recursiveResize=0;expand=0;pointerEvents=0;" parent="vlmY5Js_HX6b_5jXQJqL-21" vertex="1">
          <mxGeometry x="280" width="120" height="74" as="geometry" />
        </mxCell>
        <mxCell id="vlmY5Js_HX6b_5jXQJqL-25" value="Juniper Seedlings" style="swimlane;horizontal=0;points=[[0,0.5],[1,0.5]];portConstraint=eastwest;startSize=40;html=1;whiteSpace=wrap;collapsible=0;recursiveResize=0;expand=0;pointerEvents=0;" parent="vlmY5Js_HX6b_5jXQJqL-16" vertex="1">
          <mxGeometry y="205" width="400" height="73" as="geometry" />
        </mxCell>
        <mxCell id="vlmY5Js_HX6b_5jXQJqL-26" value="" style="swimlane;connectable=0;startSize=0;html=1;whiteSpace=wrap;collapsible=0;recursiveResize=0;expand=0;pointerEvents=0;" parent="vlmY5Js_HX6b_5jXQJqL-25" vertex="1">
          <mxGeometry x="40" width="120" height="73" as="geometry" />
        </mxCell>
        <mxCell id="vlmY5Js_HX6b_5jXQJqL-27" value="" style="swimlane;connectable=0;startSize=0;html=1;whiteSpace=wrap;collapsible=0;recursiveResize=0;expand=0;pointerEvents=0;" parent="vlmY5Js_HX6b_5jXQJqL-25" vertex="1">
          <mxGeometry x="160" width="120" height="73" as="geometry" />
        </mxCell>
        <mxCell id="vlmY5Js_HX6b_5jXQJqL-28" value="" style="swimlane;connectable=0;startSize=0;html=1;whiteSpace=wrap;collapsible=0;recursiveResize=0;expand=0;pointerEvents=0;" parent="vlmY5Js_HX6b_5jXQJqL-25" vertex="1">
          <mxGeometry x="280" width="120" height="73" as="geometry" />
        </mxCell>
        <mxCell id="SJIJbwP_Bw7cy2zv3Axa-11" style="edgeStyle=orthogonalEdgeStyle;rounded=0;orthogonalLoop=1;jettySize=auto;html=1;exitX=0.5;exitY=1;exitDx=0;exitDy=0;entryX=0.25;entryY=0;entryDx=0;entryDy=0;" parent="ajN9KvpiuAAPFwgA_kl2-1" source="SJIJbwP_Bw7cy2zv3Axa-4" target="SJIJbwP_Bw7cy2zv3Axa-6" edge="1">
          <mxGeometry relative="1" as="geometry" />
        </mxCell>
        <mxCell id="SJIJbwP_Bw7cy2zv3Axa-4" value="AM bioassay (grass)" style="rounded=1;whiteSpace=wrap;html=1;fillColor=#e1d5e7;strokeColor=#9673a6;" parent="ajN9KvpiuAAPFwgA_kl2-1" vertex="1">
          <mxGeometry x="190" y="570" width="60" height="60" as="geometry" />
        </mxCell>
        <mxCell id="SJIJbwP_Bw7cy2zv3Axa-12" style="edgeStyle=orthogonalEdgeStyle;rounded=0;orthogonalLoop=1;jettySize=auto;html=1;exitX=0.5;exitY=1;exitDx=0;exitDy=0;entryX=0.75;entryY=0;entryDx=0;entryDy=0;" parent="ajN9KvpiuAAPFwgA_kl2-1" source="SJIJbwP_Bw7cy2zv3Axa-5" target="SJIJbwP_Bw7cy2zv3Axa-6" edge="1">
          <mxGeometry relative="1" as="geometry" />
        </mxCell>
        <mxCell id="SJIJbwP_Bw7cy2zv3Axa-5" value="EM bioassay&lt;br&gt;(pinyon)" style="rounded=1;whiteSpace=wrap;html=1;fillColor=#e1d5e7;strokeColor=#9673a6;" parent="ajN9KvpiuAAPFwgA_kl2-1" vertex="1">
          <mxGeometry x="257" y="570" width="60" height="60" as="geometry" />
        </mxCell>
        <mxCell id="SJIJbwP_Bw7cy2zv3Axa-16" style="edgeStyle=orthogonalEdgeStyle;rounded=0;orthogonalLoop=1;jettySize=auto;html=1;exitX=0.5;exitY=1;exitDx=0;exitDy=0;entryX=0.335;entryY=-0.017;entryDx=0;entryDy=0;entryPerimeter=0;" parent="ajN9KvpiuAAPFwgA_kl2-1" source="SJIJbwP_Bw7cy2zv3Axa-6" target="SJIJbwP_Bw7cy2zv3Axa-14" edge="1">
          <mxGeometry relative="1" as="geometry" />
        </mxCell>
        <mxCell id="SJIJbwP_Bw7cy2zv3Axa-6" value="Visual scoring of roots for mycorrhizal structures" style="rounded=1;whiteSpace=wrap;html=1;fillColor=#e1d5e7;strokeColor=#9673a6;" parent="ajN9KvpiuAAPFwgA_kl2-1" vertex="1">
          <mxGeometry x="190" y="650" width="130" height="60" as="geometry" />
        </mxCell>
        <mxCell id="60gjQMJCxsfnzDnvrRJC-3" style="edgeStyle=orthogonalEdgeStyle;rounded=0;orthogonalLoop=1;jettySize=auto;html=1;exitX=0.5;exitY=1;exitDx=0;exitDy=0;entryX=0.489;entryY=0.369;entryDx=0;entryDy=0;entryPerimeter=0;" edge="1" parent="ajN9KvpiuAAPFwgA_kl2-1" source="SJIJbwP_Bw7cy2zv3Axa-14" target="SJIJbwP_Bw7cy2zv3Axa-19">
          <mxGeometry relative="1" as="geometry" />
        </mxCell>
        <mxCell id="SJIJbwP_Bw7cy2zv3Axa-14" value="DNA Sequencing" style="shape=parallelogram;perimeter=parallelogramPerimeter;whiteSpace=wrap;html=1;fixedSize=1;fillColor=#e1d5e7;strokeColor=#9673a6;" parent="ajN9KvpiuAAPFwgA_kl2-1" vertex="1">
          <mxGeometry x="190" y="730" width="200" height="60" as="geometry" />
        </mxCell>
        <mxCell id="60gjQMJCxsfnzDnvrRJC-5" style="edgeStyle=orthogonalEdgeStyle;rounded=0;orthogonalLoop=1;jettySize=auto;html=1;entryX=0.524;entryY=0.882;entryDx=0;entryDy=0;entryPerimeter=0;" edge="1" parent="ajN9KvpiuAAPFwgA_kl2-1" source="SJIJbwP_Bw7cy2zv3Axa-17" target="SJIJbwP_Bw7cy2zv3Axa-19">
          <mxGeometry relative="1" as="geometry" />
        </mxCell>
        <mxCell id="SJIJbwP_Bw7cy2zv3Axa-17" value="Climate Sensor Data recorded" style="shape=document;whiteSpace=wrap;html=1;boundedLbl=1;fillColor=#fff2cc;strokeColor=#d6b656;" parent="ajN9KvpiuAAPFwgA_kl2-1" vertex="1">
          <mxGeometry x="505" y="470" width="120" height="80" as="geometry" />
        </mxCell>
        <mxCell id="SJIJbwP_Bw7cy2zv3Axa-22" style="edgeStyle=orthogonalEdgeStyle;rounded=0;orthogonalLoop=1;jettySize=auto;html=1;exitX=0;exitY=0.5;exitDx=0;exitDy=0;exitPerimeter=0;strokeWidth=2;entryX=0.5;entryY=0;entryDx=0;entryDy=0;" parent="ajN9KvpiuAAPFwgA_kl2-1" source="SJIJbwP_Bw7cy2zv3Axa-19" edge="1" target="SJIJbwP_Bw7cy2zv3Axa-23">
          <mxGeometry relative="1" as="geometry">
            <mxPoint x="186" y="906" as="targetPoint" />
          </mxGeometry>
        </mxCell>
        <mxCell id="SJIJbwP_Bw7cy2zv3Axa-19" value="" style="strokeWidth=2;html=1;shape=mxgraph.flowchart.annotation_2;align=left;labelPosition=right;pointerEvents=1;direction=west;rotation=90;" parent="ajN9KvpiuAAPFwgA_kl2-1" vertex="1">
          <mxGeometry x="336.82" y="567.07" width="46.82" height="538.56" as="geometry" />
        </mxCell>
        <mxCell id="SJIJbwP_Bw7cy2zv3Axa-28" style="edgeStyle=orthogonalEdgeStyle;rounded=0;orthogonalLoop=1;jettySize=auto;html=1;exitX=1;exitY=0.5;exitDx=0;exitDy=0;entryX=0;entryY=0.5;entryDx=0;entryDy=0;strokeWidth=2;" parent="ajN9KvpiuAAPFwgA_kl2-1" source="SJIJbwP_Bw7cy2zv3Axa-23" target="SJIJbwP_Bw7cy2zv3Axa-24" edge="1">
          <mxGeometry relative="1" as="geometry" />
        </mxCell>
        <mxCell id="SJIJbwP_Bw7cy2zv3Axa-23" value="Data Analysis" style="rounded=1;whiteSpace=wrap;html=1;absoluteArcSize=1;arcSize=14;strokeWidth=2;fillColor=#f8cecc;strokeColor=#b85450;" parent="ajN9KvpiuAAPFwgA_kl2-1" vertex="1">
          <mxGeometry x="310" y="914" width="100" height="100" as="geometry" />
        </mxCell>
        <mxCell id="SJIJbwP_Bw7cy2zv3Axa-27" style="edgeStyle=orthogonalEdgeStyle;rounded=0;orthogonalLoop=1;jettySize=auto;html=1;exitX=1;exitY=0.5;exitDx=0;exitDy=0;strokeWidth=2;" parent="ajN9KvpiuAAPFwgA_kl2-1" source="SJIJbwP_Bw7cy2zv3Axa-24" target="SJIJbwP_Bw7cy2zv3Axa-25" edge="1">
          <mxGeometry relative="1" as="geometry">
            <mxPoint x="488" y="964" as="targetPoint" />
          </mxGeometry>
        </mxCell>
        <mxCell id="SJIJbwP_Bw7cy2zv3Axa-24" value="Results" style="rounded=1;whiteSpace=wrap;html=1;absoluteArcSize=1;arcSize=14;strokeWidth=2;fillColor=#f8cecc;strokeColor=#b85450;" parent="ajN9KvpiuAAPFwgA_kl2-1" vertex="1">
          <mxGeometry x="465" y="914" width="100" height="100" as="geometry" />
        </mxCell>
        <mxCell id="SJIJbwP_Bw7cy2zv3Axa-25" value="Interpretation" style="rounded=1;whiteSpace=wrap;html=1;absoluteArcSize=1;arcSize=14;strokeWidth=2;fillColor=#f8cecc;strokeColor=#b85450;" parent="ajN9KvpiuAAPFwgA_kl2-1" vertex="1">
          <mxGeometry x="625" y="914" width="100" height="100" as="geometry" />
        </mxCell>
        <mxCell id="NMHz9GAg81EiQEUiwVjs-0" value="Part 4: Grasses + Pinyon Ecto Trial" style="whiteSpace=wrap;html=1;" parent="ajN9KvpiuAAPFwgA_kl2-1" vertex="1">
          <mxGeometry x="70" y="1470" width="120" height="60" as="geometry" />
        </mxCell>
        <mxCell id="60gjQMJCxsfnzDnvrRJC-10" value="&lt;font style=&quot;font-size: 12px&quot;&gt;Full Sampling Transect&lt;/font&gt;" style="text;html=1;align=center;verticalAlign=middle;resizable=0;points=[];autosize=1;" vertex="1" parent="ajN9KvpiuAAPFwgA_kl2-1">
          <mxGeometry x="630" y="408" width="133" height="18" as="geometry" />
        </mxCell>
      </root>
    </mxGraphModel>
  </diagram>
  <diagram id="ilLjjxnwN2By9oM7nyrx" name="Page-3">
    <mxGraphModel dx="942" dy="552" grid="0" gridSize="10" guides="1" tooltips="1" connect="1" arrows="1" fold="1" page="0" pageScale="1" pageWidth="850" pageHeight="1100" math="0" shadow="0">
      <root>
        <mxCell id="LaA7QAu--uG6gZiCFBrJ-0" />
        <mxCell id="LaA7QAu--uG6gZiCFBrJ-1" parent="LaA7QAu--uG6gZiCFBrJ-0" />
        <mxCell id="Q9AayY8bbe3keEV-GmuI-30" value="" style="ellipse;whiteSpace=wrap;html=1;strokeWidth=2;fillWeight=2;hachureGap=8;fillColor=#990000;fillStyle=dots;sketch=1;" vertex="1" parent="LaA7QAu--uG6gZiCFBrJ-1">
          <mxGeometry x="650" y="110" width="60" height="60" as="geometry" />
        </mxCell>
        <mxCell id="Q9AayY8bbe3keEV-GmuI-31" value="" style="ellipse;whiteSpace=wrap;html=1;strokeWidth=2;fillWeight=2;hachureGap=8;fillColor=#990000;fillStyle=dots;sketch=1;" vertex="1" parent="LaA7QAu--uG6gZiCFBrJ-1">
          <mxGeometry x="580" y="110" width="60" height="60" as="geometry" />
        </mxCell>
        <mxCell id="Q9AayY8bbe3keEV-GmuI-32" value="" style="ellipse;whiteSpace=wrap;html=1;strokeWidth=2;fillWeight=2;hachureGap=8;fillStyle=dots;sketch=1;fillColor=#FFD966;" vertex="1" parent="LaA7QAu--uG6gZiCFBrJ-1">
          <mxGeometry x="425" y="110" width="60" height="60" as="geometry" />
        </mxCell>
        <mxCell id="Q9AayY8bbe3keEV-GmuI-33" value="" style="ellipse;whiteSpace=wrap;html=1;strokeWidth=2;fillWeight=2;hachureGap=8;fillColor=#990000;fillStyle=dots;sketch=1;" vertex="1" parent="LaA7QAu--uG6gZiCFBrJ-1">
          <mxGeometry x="650" y="250" width="60" height="60" as="geometry" />
        </mxCell>
        <mxCell id="Q9AayY8bbe3keEV-GmuI-34" value="" style="ellipse;whiteSpace=wrap;html=1;strokeWidth=2;fillWeight=2;hachureGap=8;fillColor=#990000;fillStyle=dots;sketch=1;" vertex="1" parent="LaA7QAu--uG6gZiCFBrJ-1">
          <mxGeometry x="650" y="180" width="60" height="60" as="geometry" />
        </mxCell>
        <mxCell id="Q9AayY8bbe3keEV-GmuI-35" value="" style="ellipse;whiteSpace=wrap;html=1;strokeWidth=2;fillWeight=2;hachureGap=8;fillColor=#990000;fillStyle=dots;sketch=1;" vertex="1" parent="LaA7QAu--uG6gZiCFBrJ-1">
          <mxGeometry x="580" y="180" width="60" height="60" as="geometry" />
        </mxCell>
        <mxCell id="Q9AayY8bbe3keEV-GmuI-36" value="" style="ellipse;whiteSpace=wrap;html=1;strokeWidth=2;fillWeight=2;hachureGap=8;fillStyle=dots;sketch=1;fillColor=#FFD966;" vertex="1" parent="LaA7QAu--uG6gZiCFBrJ-1">
          <mxGeometry x="425" y="250" width="60" height="60" as="geometry" />
        </mxCell>
        <mxCell id="Q9AayY8bbe3keEV-GmuI-37" value="" style="ellipse;whiteSpace=wrap;html=1;strokeWidth=2;fillWeight=2;hachureGap=8;fillStyle=dots;sketch=1;fillColor=#FFD966;" vertex="1" parent="LaA7QAu--uG6gZiCFBrJ-1">
          <mxGeometry x="500" y="250" width="60" height="60" as="geometry" />
        </mxCell>
        <mxCell id="Q9AayY8bbe3keEV-GmuI-38" value="" style="ellipse;whiteSpace=wrap;html=1;strokeWidth=2;fillWeight=2;hachureGap=8;fillColor=#990000;fillStyle=dots;sketch=1;" vertex="1" parent="LaA7QAu--uG6gZiCFBrJ-1">
          <mxGeometry x="580" y="250" width="60" height="60" as="geometry" />
        </mxCell>
        <mxCell id="Q9AayY8bbe3keEV-GmuI-39" value="" style="ellipse;whiteSpace=wrap;html=1;strokeWidth=2;fillWeight=2;hachureGap=8;fillStyle=dots;sketch=1;fillColor=#7EA6E0;" vertex="1" parent="LaA7QAu--uG6gZiCFBrJ-1">
          <mxGeometry x="350" y="110" width="60" height="60" as="geometry" />
        </mxCell>
        <mxCell id="Q9AayY8bbe3keEV-GmuI-40" value="" style="ellipse;whiteSpace=wrap;html=1;strokeWidth=2;fillWeight=2;hachureGap=8;fillStyle=dots;sketch=1;fillColor=#7EA6E0;" vertex="1" parent="LaA7QAu--uG6gZiCFBrJ-1">
          <mxGeometry x="350" y="180" width="60" height="60" as="geometry" />
        </mxCell>
        <mxCell id="Q9AayY8bbe3keEV-GmuI-41" value="" style="ellipse;whiteSpace=wrap;html=1;strokeWidth=2;fillWeight=2;hachureGap=8;fillStyle=dots;sketch=1;fillColor=#7EA6E0;" vertex="1" parent="LaA7QAu--uG6gZiCFBrJ-1">
          <mxGeometry x="350" y="250" width="60" height="60" as="geometry" />
        </mxCell>
        <mxCell id="Q9AayY8bbe3keEV-GmuI-42" value="" style="ellipse;whiteSpace=wrap;html=1;strokeWidth=2;fillWeight=2;hachureGap=8;fillStyle=dots;sketch=1;fillColor=#7EA6E0;" vertex="1" parent="LaA7QAu--uG6gZiCFBrJ-1">
          <mxGeometry x="280" y="110" width="60" height="60" as="geometry" />
        </mxCell>
        <mxCell id="Q9AayY8bbe3keEV-GmuI-43" value="" style="ellipse;whiteSpace=wrap;html=1;strokeWidth=2;fillWeight=2;hachureGap=8;fillStyle=dots;sketch=1;fillColor=#7EA6E0;" vertex="1" parent="LaA7QAu--uG6gZiCFBrJ-1">
          <mxGeometry x="280" y="180" width="60" height="60" as="geometry" />
        </mxCell>
        <mxCell id="Q9AayY8bbe3keEV-GmuI-44" value="" style="ellipse;whiteSpace=wrap;html=1;strokeWidth=2;fillWeight=2;hachureGap=8;fillStyle=dots;sketch=1;fillColor=#7EA6E0;" vertex="1" parent="LaA7QAu--uG6gZiCFBrJ-1">
          <mxGeometry x="280" y="250" width="60" height="60" as="geometry" />
        </mxCell>
        <mxCell id="Q9AayY8bbe3keEV-GmuI-45" value="" style="ellipse;whiteSpace=wrap;html=1;strokeWidth=2;fillWeight=2;hachureGap=8;fillStyle=dots;sketch=1;fillColor=#FFD966;" vertex="1" parent="LaA7QAu--uG6gZiCFBrJ-1">
          <mxGeometry x="500" y="110" width="60" height="60" as="geometry" />
        </mxCell>
        <mxCell id="Q9AayY8bbe3keEV-GmuI-46" value="" style="ellipse;whiteSpace=wrap;html=1;strokeWidth=2;fillWeight=2;hachureGap=8;fillStyle=dots;sketch=1;fillColor=#FFD966;" vertex="1" parent="LaA7QAu--uG6gZiCFBrJ-1">
          <mxGeometry x="500" y="180" width="60" height="60" as="geometry" />
        </mxCell>
        <mxCell id="Q9AayY8bbe3keEV-GmuI-47" value="" style="ellipse;whiteSpace=wrap;html=1;strokeWidth=2;fillWeight=2;hachureGap=8;fillStyle=dots;sketch=1;fillColor=#FFD966;" vertex="1" parent="LaA7QAu--uG6gZiCFBrJ-1">
          <mxGeometry x="425" y="180" width="60" height="60" as="geometry" />
        </mxCell>
        <mxCell id="Q9AayY8bbe3keEV-GmuI-48" value="" style="ellipse;whiteSpace=wrap;html=1;strokeWidth=2;fillWeight=2;hachureGap=8;fillStyle=dots;sketch=1;fillColor=#969696;" vertex="1" parent="LaA7QAu--uG6gZiCFBrJ-1">
          <mxGeometry x="650" y="350" width="60" height="60" as="geometry" />
        </mxCell>
        <mxCell id="Q9AayY8bbe3keEV-GmuI-49" value="" style="ellipse;whiteSpace=wrap;html=1;strokeWidth=2;fillWeight=2;hachureGap=8;fillStyle=dots;sketch=1;fillColor=#9E9E9E;" vertex="1" parent="LaA7QAu--uG6gZiCFBrJ-1">
          <mxGeometry x="580" y="350" width="60" height="60" as="geometry" />
        </mxCell>
        <mxCell id="Q9AayY8bbe3keEV-GmuI-50" value="" style="ellipse;whiteSpace=wrap;html=1;strokeWidth=2;fillWeight=2;hachureGap=8;fillStyle=dots;sketch=1;fillColor=#FFD966;" vertex="1" parent="LaA7QAu--uG6gZiCFBrJ-1">
          <mxGeometry x="425" y="350" width="60" height="60" as="geometry" />
        </mxCell>
        <mxCell id="Q9AayY8bbe3keEV-GmuI-51" value="" style="ellipse;whiteSpace=wrap;html=1;strokeWidth=2;fillWeight=2;hachureGap=8;fillStyle=dots;sketch=1;fillColor=#969696;" vertex="1" parent="LaA7QAu--uG6gZiCFBrJ-1">
          <mxGeometry x="650" y="490" width="60" height="60" as="geometry" />
        </mxCell>
        <mxCell id="Q9AayY8bbe3keEV-GmuI-52" value="" style="ellipse;whiteSpace=wrap;html=1;strokeWidth=2;fillWeight=2;hachureGap=8;fillStyle=dots;sketch=1;fillColor=#969696;" vertex="1" parent="LaA7QAu--uG6gZiCFBrJ-1">
          <mxGeometry x="650" y="420" width="60" height="60" as="geometry" />
        </mxCell>
        <mxCell id="Q9AayY8bbe3keEV-GmuI-53" value="" style="ellipse;whiteSpace=wrap;html=1;strokeWidth=2;fillWeight=2;hachureGap=8;fillStyle=dots;sketch=1;fillColor=#969696;" vertex="1" parent="LaA7QAu--uG6gZiCFBrJ-1">
          <mxGeometry x="580" y="420" width="60" height="60" as="geometry" />
        </mxCell>
        <mxCell id="Q9AayY8bbe3keEV-GmuI-54" value="" style="ellipse;whiteSpace=wrap;html=1;strokeWidth=2;fillWeight=2;hachureGap=8;fillStyle=dots;sketch=1;fillColor=#FFD966;" vertex="1" parent="LaA7QAu--uG6gZiCFBrJ-1">
          <mxGeometry x="425" y="490" width="60" height="60" as="geometry" />
        </mxCell>
        <mxCell id="Q9AayY8bbe3keEV-GmuI-55" value="" style="ellipse;whiteSpace=wrap;html=1;strokeWidth=2;fillWeight=2;hachureGap=8;fillStyle=dots;sketch=1;fillColor=#FFD966;" vertex="1" parent="LaA7QAu--uG6gZiCFBrJ-1">
          <mxGeometry x="500" y="490" width="60" height="60" as="geometry" />
        </mxCell>
        <mxCell id="Q9AayY8bbe3keEV-GmuI-56" value="" style="ellipse;whiteSpace=wrap;html=1;strokeWidth=2;fillWeight=2;hachureGap=8;fillStyle=dots;sketch=1;fillColor=#969696;" vertex="1" parent="LaA7QAu--uG6gZiCFBrJ-1">
          <mxGeometry x="580" y="490" width="60" height="60" as="geometry" />
        </mxCell>
        <mxCell id="Q9AayY8bbe3keEV-GmuI-57" value="" style="ellipse;whiteSpace=wrap;html=1;strokeWidth=2;fillWeight=2;hachureGap=8;fillStyle=dots;sketch=1;fillColor=#7EA6E0;" vertex="1" parent="LaA7QAu--uG6gZiCFBrJ-1">
          <mxGeometry x="350" y="350" width="60" height="60" as="geometry" />
        </mxCell>
        <mxCell id="Q9AayY8bbe3keEV-GmuI-58" value="" style="ellipse;whiteSpace=wrap;html=1;strokeWidth=2;fillWeight=2;hachureGap=8;fillStyle=dots;sketch=1;fillColor=#7EA6E0;" vertex="1" parent="LaA7QAu--uG6gZiCFBrJ-1">
          <mxGeometry x="350" y="420" width="60" height="60" as="geometry" />
        </mxCell>
        <mxCell id="Q9AayY8bbe3keEV-GmuI-59" value="" style="ellipse;whiteSpace=wrap;html=1;strokeWidth=2;fillWeight=2;hachureGap=8;fillStyle=dots;sketch=1;fillColor=#7EA6E0;" vertex="1" parent="LaA7QAu--uG6gZiCFBrJ-1">
          <mxGeometry x="350" y="490" width="60" height="60" as="geometry" />
        </mxCell>
        <mxCell id="Q9AayY8bbe3keEV-GmuI-60" value="" style="ellipse;whiteSpace=wrap;html=1;strokeWidth=2;fillWeight=2;hachureGap=8;fillStyle=dots;sketch=1;fillColor=#7EA6E0;" vertex="1" parent="LaA7QAu--uG6gZiCFBrJ-1">
          <mxGeometry x="280" y="350" width="60" height="60" as="geometry" />
        </mxCell>
        <mxCell id="Q9AayY8bbe3keEV-GmuI-61" value="" style="ellipse;whiteSpace=wrap;html=1;strokeWidth=2;fillWeight=2;hachureGap=8;fillStyle=dots;sketch=1;fillColor=#7EA6E0;" vertex="1" parent="LaA7QAu--uG6gZiCFBrJ-1">
          <mxGeometry x="280" y="420" width="60" height="60" as="geometry" />
        </mxCell>
        <mxCell id="Q9AayY8bbe3keEV-GmuI-62" value="" style="ellipse;whiteSpace=wrap;html=1;strokeWidth=2;fillWeight=2;hachureGap=8;fillStyle=dots;sketch=1;fillColor=#7EA6E0;" vertex="1" parent="LaA7QAu--uG6gZiCFBrJ-1">
          <mxGeometry x="280" y="490" width="60" height="60" as="geometry" />
        </mxCell>
        <mxCell id="Q9AayY8bbe3keEV-GmuI-63" value="" style="ellipse;whiteSpace=wrap;html=1;strokeWidth=2;fillWeight=2;hachureGap=8;fillStyle=dots;sketch=1;fillColor=#FFD966;" vertex="1" parent="LaA7QAu--uG6gZiCFBrJ-1">
          <mxGeometry x="500" y="350" width="60" height="60" as="geometry" />
        </mxCell>
        <mxCell id="Q9AayY8bbe3keEV-GmuI-64" value="" style="ellipse;whiteSpace=wrap;html=1;strokeWidth=2;fillWeight=2;hachureGap=8;fillStyle=dots;sketch=1;fillColor=#FFD966;" vertex="1" parent="LaA7QAu--uG6gZiCFBrJ-1">
          <mxGeometry x="500" y="420" width="60" height="60" as="geometry" />
        </mxCell>
        <mxCell id="Q9AayY8bbe3keEV-GmuI-65" value="" style="ellipse;whiteSpace=wrap;html=1;strokeWidth=2;fillWeight=2;hachureGap=8;fillStyle=dots;sketch=1;fillColor=#FFD966;" vertex="1" parent="LaA7QAu--uG6gZiCFBrJ-1">
          <mxGeometry x="425" y="420" width="60" height="60" as="geometry" />
        </mxCell>
        <mxCell id="Q9AayY8bbe3keEV-GmuI-66" value="" style="endArrow=none;html=1;" edge="1" parent="LaA7QAu--uG6gZiCFBrJ-1">
          <mxGeometry width="50" height="50" relative="1" as="geometry">
            <mxPoint x="280" y="330" as="sourcePoint" />
            <mxPoint x="720" y="330" as="targetPoint" />
          </mxGeometry>
        </mxCell>
        <mxCell id="Q9AayY8bbe3keEV-GmuI-67" value="" style="shape=curlyBracket;whiteSpace=wrap;html=1;rounded=1;strokeWidth=1;fillColor=#C3ABD0;size=0.5;rotation=90;" vertex="1" parent="LaA7QAu--uG6gZiCFBrJ-1">
          <mxGeometry x="335" y="25" width="20" height="130" as="geometry" />
        </mxCell>
        <mxCell id="Q9AayY8bbe3keEV-GmuI-68" value="" style="shape=curlyBracket;whiteSpace=wrap;html=1;rounded=1;strokeWidth=1;fillColor=#C3ABD0;size=0.5;rotation=90;" vertex="1" parent="LaA7QAu--uG6gZiCFBrJ-1">
          <mxGeometry x="480" y="25" width="20" height="130" as="geometry" />
        </mxCell>
        <mxCell id="Q9AayY8bbe3keEV-GmuI-69" value="" style="shape=curlyBracket;whiteSpace=wrap;html=1;rounded=1;strokeWidth=1;fillColor=#C3ABD0;size=0.5;rotation=90;" vertex="1" parent="LaA7QAu--uG6gZiCFBrJ-1">
          <mxGeometry x="630" y="25" width="20" height="130" as="geometry" />
        </mxCell>
        <mxCell id="Q9AayY8bbe3keEV-GmuI-70" value="" style="shape=curlyBracket;whiteSpace=wrap;html=1;rounded=1;strokeWidth=1;fillColor=#C3ABD0;size=0.5;rotation=-90;" vertex="1" parent="LaA7QAu--uG6gZiCFBrJ-1">
          <mxGeometry x="335" y="510" width="20" height="130" as="geometry" />
        </mxCell>
        <mxCell id="Q9AayY8bbe3keEV-GmuI-71" value="" style="shape=curlyBracket;whiteSpace=wrap;html=1;rounded=1;strokeWidth=1;fillColor=#C3ABD0;size=0.5;rotation=-90;" vertex="1" parent="LaA7QAu--uG6gZiCFBrJ-1">
          <mxGeometry x="485" y="510" width="20" height="130" as="geometry" />
        </mxCell>
        <mxCell id="Q9AayY8bbe3keEV-GmuI-72" value="" style="shape=curlyBracket;whiteSpace=wrap;html=1;rounded=1;strokeWidth=1;fillColor=#C3ABD0;size=0.5;rotation=-90;" vertex="1" parent="LaA7QAu--uG6gZiCFBrJ-1">
          <mxGeometry x="640" y="510" width="20" height="130" as="geometry" />
        </mxCell>
        <mxCell id="Q9AayY8bbe3keEV-GmuI-73" value="Undisturbed" style="text;html=1;align=center;verticalAlign=middle;resizable=0;points=[];autosize=1;" vertex="1" parent="LaA7QAu--uG6gZiCFBrJ-1">
          <mxGeometry x="305" y="60" width="80" height="20" as="geometry" />
        </mxCell>
        <mxCell id="Q9AayY8bbe3keEV-GmuI-74" value="Transition" style="text;html=1;align=center;verticalAlign=middle;resizable=0;points=[];autosize=1;" vertex="1" parent="LaA7QAu--uG6gZiCFBrJ-1">
          <mxGeometry x="455" y="60" width="70" height="20" as="geometry" />
        </mxCell>
        <mxCell id="Q9AayY8bbe3keEV-GmuI-75" value="Burned" style="text;html=1;align=center;verticalAlign=middle;resizable=0;points=[];autosize=1;" vertex="1" parent="LaA7QAu--uG6gZiCFBrJ-1">
          <mxGeometry x="615" y="60" width="50" height="20" as="geometry" />
        </mxCell>
        <mxCell id="Q9AayY8bbe3keEV-GmuI-79" value="Undisturbed" style="text;html=1;align=center;verticalAlign=middle;resizable=0;points=[];autosize=1;" vertex="1" parent="LaA7QAu--uG6gZiCFBrJ-1">
          <mxGeometry x="305" y="590" width="80" height="20" as="geometry" />
        </mxCell>
        <mxCell id="Q9AayY8bbe3keEV-GmuI-80" value="Transition" style="text;html=1;align=center;verticalAlign=middle;resizable=0;points=[];autosize=1;" vertex="1" parent="LaA7QAu--uG6gZiCFBrJ-1">
          <mxGeometry x="460" y="590" width="70" height="20" as="geometry" />
        </mxCell>
        <mxCell id="Q9AayY8bbe3keEV-GmuI-81" value="Thinned" style="text;html=1;align=center;verticalAlign=middle;resizable=0;points=[];autosize=1;" vertex="1" parent="LaA7QAu--uG6gZiCFBrJ-1">
          <mxGeometry x="620" y="590" width="60" height="20" as="geometry" />
        </mxCell>
        <mxCell id="Q9AayY8bbe3keEV-GmuI-82" value="" style="strokeWidth=2;html=1;shape=mxgraph.flowchart.annotation_2;align=left;labelPosition=right;pointerEvents=1;fillColor=#C3ABD0;rotation=-180;" vertex="1" parent="LaA7QAu--uG6gZiCFBrJ-1">
          <mxGeometry x="730" y="110" width="50" height="200" as="geometry" />
        </mxCell>
        <mxCell id="Q9AayY8bbe3keEV-GmuI-83" value="&lt;font style=&quot;font-size: 14px&quot;&gt;x ? reps x ? sites&lt;/font&gt;" style="text;html=1;align=center;verticalAlign=middle;resizable=0;points=[];autosize=1;" vertex="1" parent="LaA7QAu--uG6gZiCFBrJ-1">
          <mxGeometry x="785" y="200" width="120" height="20" as="geometry" />
        </mxCell>
        <mxCell id="Q9AayY8bbe3keEV-GmuI-84" value="" style="strokeWidth=2;html=1;shape=mxgraph.flowchart.annotation_2;align=left;labelPosition=right;pointerEvents=1;fillColor=#C3ABD0;rotation=-180;" vertex="1" parent="LaA7QAu--uG6gZiCFBrJ-1">
          <mxGeometry x="730" y="350" width="50" height="200" as="geometry" />
        </mxCell>
        <mxCell id="Q9AayY8bbe3keEV-GmuI-85" value="&lt;font style=&quot;font-size: 14px&quot;&gt;x ? reps x ? sites&lt;/font&gt;" style="text;html=1;align=center;verticalAlign=middle;resizable=0;points=[];autosize=1;" vertex="1" parent="LaA7QAu--uG6gZiCFBrJ-1">
          <mxGeometry x="785" y="440" width="120" height="20" as="geometry" />
        </mxCell>
        <mxCell id="Q9AayY8bbe3keEV-GmuI-86" value="&lt;font style=&quot;font-size: 21px&quot;&gt;&lt;b&gt;Bioassay Planting Design&lt;/b&gt;&lt;/font&gt;" style="text;html=1;align=center;verticalAlign=middle;resizable=0;points=[];autosize=1;rotation=-90;" vertex="1" parent="LaA7QAu--uG6gZiCFBrJ-1">
          <mxGeometry x="117" y="310" width="267" height="21" as="geometry" />
        </mxCell>
      </root>
    </mxGraphModel>
  </diagram>
</mxfile>
